<svg width="453" height="234" viewBox="0 0 453 234" fill="none" xmlns="http://www.w3.org/2000/svg">
<rect x="171.409" y="0.639587" width="102.376" height="162.493" fill="#FFFF00"/>
<path d="M223.538 114.162L104.903 114.162C85.6329 114.162 70.0111 98.5404 70.0111 79.27C70.0111 59.9995 85.6329 44.3777 104.903 44.3777L223.538 44.3777V114.162Z" fill="#FF0000" fill-opacity="0.34"/>
<path d="M222.743 114.162L62.2383 114.162C42.9678 114.162 27.346 98.5404 27.346 79.27C27.346 59.9995 42.9678 44.3777 62.2383 44.3777L222.743 44.3777V114.162Z" fill="#FF0000" fill-opacity="0.33"/>
<path d="M223.485 114.162L83.9158 114.162C64.6453 114.162 49.0235 98.5404 49.0235 79.27C49.0235 59.9995 64.6454 44.3777 83.9158 44.3777L223.485 44.3777V114.162Z" fill="#FF0000" fill-opacity="0.33"/>
<path d="M222.89 69.9096L124.969 69.9096C105.822 69.9096 90.2995 54.3874 90.2995 35.2397C90.2995 16.092 105.822 0.569794 124.969 0.569794L222.89 0.569794V69.9096Z" fill="#FF7F00" fill-opacity="0.34"/>
<path d="M222.89 69.9096L104.034 69.9096C84.8863 69.9096 69.3641 54.3874 69.3641 35.2397C69.3641 16.092 84.8863 0.569794 104.034 0.569794L222.89 0.569794V69.9096Z" fill="#FF7F00" fill-opacity="0.33"/>
<path d="M222.89 69.9096L83.0986 69.9096C63.9509 69.9096 48.4287 54.3874 48.4287 35.2397C48.4287 16.092 63.9509 0.569794 83.0986 0.569794L222.89 0.569794V69.9096Z" fill="#FF7F00" fill-opacity="0.33"/>
<path d="M222.614 94.8708L358.693 94.8708C377.964 94.8708 393.586 110.493 393.586 129.763C393.586 149.034 377.964 164.656 358.693 164.656L222.614 164.656L222.614 94.8708Z" fill="#00FF00" fill-opacity="0.34"/>
<path d="M222.147 94.8708L392.421 94.8708C411.691 94.8708 427.313 110.493 427.313 129.763C427.313 149.034 411.691 164.656 392.421 164.656L222.147 164.656L222.147 94.8708Z" fill="#00FF00" fill-opacity="0.33"/>
<path d="M222.147 94.8708L418.066 94.8708C437.337 94.8708 452.958 110.493 452.958 129.763C452.958 149.034 437.337 164.656 418.066 164.656L222.147 164.656L222.147 94.8708Z" fill="#00FF00" fill-opacity="0.33"/>
<path d="M222.147 44.3774L344.436 44.3774C363.707 44.3774 379.329 59.9992 379.329 79.2697C379.329 98.5403 363.707 114.162 344.436 114.162L222.147 114.162L222.147 44.3774Z" fill="#0000FF" fill-opacity="0.34"/>
<path d="M222.147 44.3774L365.87 44.3774C385.141 44.3774 400.762 59.9992 400.762 79.2697C400.762 98.5403 385.14 114.162 365.87 114.162L222.147 114.162L222.147 44.3774Z" fill="#0000FF" fill-opacity="0.33"/>
<path d="M222.147 44.3774L387.304 44.3774C406.574 44.3774 422.196 59.9992 422.196 79.2697C422.196 98.5403 406.574 114.162 387.304 114.162L222.147 114.162L222.147 44.3774Z" fill="#0000FF" fill-opacity="0.33"/>
<path d="M222.147 0.568019L319.845 0.568019C339.116 0.568019 354.738 16.1899 354.738 35.4604C354.738 54.7309 339.116 70.3527 319.845 70.3527H222.147V0.568019Z" fill="#4B0082" fill-opacity="0.33"/>
<path d="M222.147 0.8126L340.903 0.8126C360.106 0.8126 375.673 16.3797 375.673 35.5827C375.673 54.7857 360.106 70.3528 340.903 70.3528H222.147V0.8126Z" fill="#4B0082" fill-opacity="0.33"/>
<path d="M222.147 0.568054L361.716 0.568054C380.987 0.568054 396.608 16.1899 396.608 35.4604C396.608 54.7309 380.987 70.3528 361.716 70.3528H222.147V0.568054Z" fill="#4B0082" fill-opacity="0.34"/>
<path d="M221.694 164.656L97.5855 164.656C78.315 164.656 62.6932 149.034 62.6932 129.763C62.6932 110.493 78.315 94.8709 97.5856 94.8709L221.694 94.8709L221.694 164.656Z" fill="#9400D3" fill-opacity="0.33"/>
<path d="M221.862 164.656L67.9407 164.656C48.6702 164.656 33.0484 149.034 33.0484 129.763C33.0484 110.493 48.6702 94.8709 67.9407 94.8709L221.862 94.8709L221.862 164.656Z" fill="#9400D3" fill-opacity="0.34"/>
<path d="M221.585 164.656L37.8509 164.656C18.5804 164.656 2.95856 149.034 2.95856 129.763C2.95856 110.493 18.5804 94.8709 37.8509 94.8709L221.585 94.8709L221.585 164.656Z" fill="#9400D3" fill-opacity="0.33"/>
<path d="M6.64214 198.38H1.26614V195.212H15.9061V198.38H10.5301V212.012H6.64214V198.38ZM33.4061 195.212V212.012H29.5181V205.124H21.8861V212.012H17.9981V195.212H21.8861V201.836H29.5181V195.212H33.4061ZM50.3889 208.892V212.012H37.3809V195.212H50.0769V198.332H41.2449V201.98H49.0449V205.004H41.2449V208.892H50.3889ZM60.2793 195.212H67.9113C69.7353 195.212 71.3433 195.564 72.7353 196.268C74.1433 196.956 75.2313 197.932 75.9993 199.196C76.7833 200.46 77.1753 201.932 77.1753 203.612C77.1753 205.292 76.7833 206.764 75.9993 208.028C75.2313 209.292 74.1433 210.276 72.7353 210.98C71.3433 211.668 69.7353 212.012 67.9113 212.012H60.2793V195.212ZM67.7193 208.82C69.3993 208.82 70.7353 208.356 71.7273 207.428C72.7353 206.484 73.2393 205.212 73.2393 203.612C73.2393 202.012 72.7353 200.748 71.7273 199.82C70.7353 198.876 69.3993 198.404 67.7193 198.404H64.1673V208.82H67.7193ZM88.2434 212.3C86.4994 212.3 84.9234 211.924 83.5154 211.172C82.1234 210.42 81.0274 209.388 80.2274 208.076C79.4434 206.748 79.0514 205.26 79.0514 203.612C79.0514 201.964 79.4434 200.484 80.2274 199.172C81.0274 197.844 82.1234 196.804 83.5154 196.052C84.9234 195.3 86.4994 194.924 88.2434 194.924C89.9874 194.924 91.5554 195.3 92.9474 196.052C94.3394 196.804 95.4354 197.844 96.2354 199.172C97.0354 200.484 97.4354 201.964 97.4354 203.612C97.4354 205.26 97.0354 206.748 96.2354 208.076C95.4354 209.388 94.3394 210.42 92.9474 211.172C91.5554 211.924 89.9874 212.3 88.2434 212.3ZM88.2434 208.988C89.2354 208.988 90.1314 208.764 90.9314 208.316C91.7314 207.852 92.3554 207.212 92.8034 206.396C93.2674 205.58 93.4994 204.652 93.4994 203.612C93.4994 202.572 93.2674 201.644 92.8034 200.828C92.3554 200.012 91.7314 199.38 90.9314 198.932C90.1314 198.468 89.2354 198.236 88.2434 198.236C87.2514 198.236 86.3554 198.468 85.5554 198.932C84.7554 199.38 84.1234 200.012 83.6594 200.828C83.2114 201.644 82.9874 202.572 82.9874 203.612C82.9874 204.652 83.2114 205.58 83.6594 206.396C84.1234 207.212 84.7554 207.852 85.5554 208.316C86.3554 208.764 87.2514 208.988 88.2434 208.988ZM115.645 212.012L115.621 201.932L110.677 210.236H108.925L104.005 202.148V212.012H100.357V195.212H103.573L109.861 205.652L116.053 195.212H119.245L119.293 212.012H115.645ZM124.455 207.548C125.127 207.548 125.679 207.764 126.111 208.196C126.543 208.612 126.759 209.164 126.759 209.852C126.759 210.172 126.719 210.492 126.639 210.812C126.559 211.132 126.383 211.612 126.111 212.252L124.743 215.708H122.367L123.423 211.892C123.023 211.732 122.703 211.476 122.463 211.124C122.239 210.756 122.127 210.332 122.127 209.852C122.127 209.164 122.343 208.612 122.775 208.196C123.223 207.764 123.783 207.548 124.455 207.548ZM139.453 212.3C138.317 212.3 137.269 212.092 136.309 211.676C135.365 211.244 134.589 210.636 133.981 209.852L136.141 207.26C137.053 208.492 138.093 209.108 139.261 209.108C140.845 209.108 141.637 208.18 141.637 206.324V198.332H135.733V195.212H145.501V206.108C145.501 208.172 144.989 209.724 143.965 210.764C142.941 211.788 141.437 212.3 139.453 212.3ZM160.054 208.412H152.254L150.766 212.012H146.782L154.27 195.212H158.11L165.622 212.012H161.542L160.054 208.412ZM158.83 205.46L156.166 199.028L153.502 205.46H158.83ZM182.603 195.212L175.331 212.012H171.491L164.243 195.212H168.443L173.555 207.212L178.739 195.212H182.603ZM194.507 208.412H186.707L185.219 212.012H181.235L188.723 195.212H192.563L200.075 212.012H195.995L194.507 208.412ZM193.283 205.46L190.619 199.028L187.955 205.46H193.283ZM207.338 212.3C206.01 212.3 204.722 212.124 203.474 211.772C202.242 211.404 201.25 210.932 200.498 210.356L201.818 207.428C202.538 207.956 203.394 208.38 204.386 208.7C205.378 209.02 206.37 209.18 207.362 209.18C208.466 209.18 209.282 209.02 209.81 208.7C210.338 208.364 210.602 207.924 210.602 207.38C210.602 206.98 210.442 206.652 210.122 206.396C209.818 206.124 209.418 205.908 208.922 205.748C208.442 205.588 207.786 205.412 206.954 205.22C205.674 204.916 204.626 204.612 203.81 204.308C202.994 204.004 202.29 203.516 201.698 202.844C201.122 202.172 200.834 201.276 200.834 200.156C200.834 199.18 201.098 198.3 201.626 197.516C202.154 196.716 202.946 196.084 204.002 195.62C205.074 195.156 206.378 194.924 207.914 194.924C208.986 194.924 210.034 195.052 211.058 195.308C212.082 195.564 212.978 195.932 213.746 196.412L212.546 199.364C210.994 198.484 209.442 198.044 207.89 198.044C206.802 198.044 205.994 198.22 205.466 198.572C204.954 198.924 204.698 199.388 204.698 199.964C204.698 200.54 204.994 200.972 205.586 201.26C206.194 201.532 207.114 201.804 208.346 202.076C209.626 202.38 210.674 202.684 211.49 202.988C212.306 203.292 213.002 203.772 213.578 204.428C214.17 205.084 214.466 205.972 214.466 207.092C214.466 208.052 214.194 208.932 213.65 209.732C213.122 210.516 212.322 211.14 211.25 211.604C210.178 212.068 208.874 212.3 207.338 212.3ZM225.163 212.3C223.451 212.3 221.899 211.932 220.507 211.196C219.131 210.444 218.043 209.412 217.243 208.1C216.459 206.772 216.067 205.276 216.067 203.612C216.067 201.948 216.459 200.46 217.243 199.148C218.043 197.82 219.131 196.788 220.507 196.052C221.899 195.3 223.459 194.924 225.187 194.924C226.643 194.924 227.955 195.18 229.123 195.692C230.307 196.204 231.299 196.94 232.099 197.9L229.603 200.204C228.467 198.892 227.059 198.236 225.379 198.236C224.339 198.236 223.411 198.468 222.595 198.932C221.779 199.38 221.139 200.012 220.675 200.828C220.227 201.644 220.003 202.572 220.003 203.612C220.003 204.652 220.227 205.58 220.675 206.396C221.139 207.212 221.779 207.852 222.595 208.316C223.411 208.764 224.339 208.988 225.379 208.988C227.059 208.988 228.467 208.324 229.603 206.996L232.099 209.3C231.299 210.276 230.307 211.02 229.123 211.532C227.939 212.044 226.619 212.3 225.163 212.3ZM245.429 212.012L242.189 207.332H241.997H238.613V212.012H234.725V195.212H241.997C243.485 195.212 244.773 195.46 245.861 195.956C246.965 196.452 247.813 197.156 248.405 198.068C248.997 198.98 249.293 200.06 249.293 201.308C249.293 202.556 248.989 203.636 248.381 204.548C247.789 205.444 246.941 206.132 245.837 206.612L249.605 212.012H245.429ZM245.357 201.308C245.357 200.364 245.053 199.644 244.445 199.148C243.837 198.636 242.949 198.38 241.781 198.38H238.613V204.236H241.781C242.949 204.236 243.837 203.98 244.445 203.468C245.053 202.956 245.357 202.236 245.357 201.308ZM252.373 195.212H256.261V212.012H252.373V195.212ZM267.52 195.212C269.008 195.212 270.296 195.46 271.384 195.956C272.488 196.452 273.336 197.156 273.928 198.068C274.52 198.98 274.816 200.06 274.816 201.308C274.816 202.54 274.52 203.62 273.928 204.548C273.336 205.46 272.488 206.164 271.384 206.66C270.296 207.14 269.008 207.38 267.52 207.38H264.136V212.012H260.248V195.212H267.52ZM267.304 204.212C268.472 204.212 269.36 203.964 269.968 203.468C270.576 202.956 270.88 202.236 270.88 201.308C270.88 200.364 270.576 199.644 269.968 199.148C269.36 198.636 268.472 198.38 267.304 198.38H264.136V204.212H267.304ZM280.603 198.38H275.227V195.212H289.867V198.38H284.491V212.012H280.603V198.38ZM309.82 208.412H302.02L300.532 212.012H296.548L304.036 195.212H307.876L315.388 212.012H311.308L309.82 208.412ZM308.596 205.46L305.932 199.028L303.268 205.46H308.596ZM332.539 195.212V212.012H329.347L320.971 201.812V212.012H317.131V195.212H320.347L328.699 205.412V195.212H332.539ZM336.514 195.212H344.146C345.97 195.212 347.578 195.564 348.97 196.268C350.378 196.956 351.466 197.932 352.234 199.196C353.018 200.46 353.41 201.932 353.41 203.612C353.41 205.292 353.018 206.764 352.234 208.028C351.466 209.292 350.378 210.276 348.97 210.98C347.578 211.668 345.97 212.012 344.146 212.012H336.514V195.212ZM343.954 208.82C345.634 208.82 346.97 208.356 347.962 207.428C348.97 206.484 349.474 205.212 349.474 203.612C349.474 202.012 348.97 200.748 347.962 199.82C346.97 198.876 345.634 198.404 343.954 198.404H340.402V208.82H343.954ZM371.179 212.3C369.467 212.3 367.915 211.932 366.523 211.196C365.147 210.444 364.059 209.412 363.259 208.1C362.475 206.772 362.083 205.276 362.083 203.612C362.083 201.948 362.475 200.46 363.259 199.148C364.059 197.82 365.147 196.788 366.523 196.052C367.915 195.3 369.475 194.924 371.203 194.924C372.659 194.924 373.971 195.18 375.139 195.692C376.323 196.204 377.315 196.94 378.115 197.9L375.619 200.204C374.483 198.892 373.075 198.236 371.395 198.236C370.355 198.236 369.427 198.468 368.611 198.932C367.795 199.38 367.155 200.012 366.691 200.828C366.243 201.644 366.019 202.572 366.019 203.612C366.019 204.652 366.243 205.58 366.691 206.396C367.155 207.212 367.795 207.852 368.611 208.316C369.427 208.764 370.355 208.988 371.395 208.988C373.075 208.988 374.483 208.324 375.619 206.996L378.115 209.3C377.315 210.276 376.323 211.02 375.139 211.532C373.955 212.044 372.635 212.3 371.179 212.3ZM388.525 212.3C386.781 212.3 385.205 211.924 383.797 211.172C382.405 210.42 381.309 209.388 380.509 208.076C379.725 206.748 379.333 205.26 379.333 203.612C379.333 201.964 379.725 200.484 380.509 199.172C381.309 197.844 382.405 196.804 383.797 196.052C385.205 195.3 386.781 194.924 388.525 194.924C390.269 194.924 391.837 195.3 393.229 196.052C394.621 196.804 395.717 197.844 396.517 199.172C397.317 200.484 397.717 201.964 397.717 203.612C397.717 205.26 397.317 206.748 396.517 208.076C395.717 209.388 394.621 210.42 393.229 211.172C391.837 211.924 390.269 212.3 388.525 212.3ZM388.525 208.988C389.517 208.988 390.413 208.764 391.213 208.316C392.013 207.852 392.637 207.212 393.085 206.396C393.549 205.58 393.781 204.652 393.781 203.612C393.781 202.572 393.549 201.644 393.085 200.828C392.637 200.012 392.013 199.38 391.213 198.932C390.413 198.468 389.517 198.236 388.525 198.236C387.533 198.236 386.637 198.468 385.837 198.932C385.037 199.38 384.405 200.012 383.941 200.828C383.493 201.644 383.269 202.572 383.269 203.612C383.269 204.652 383.493 205.58 383.941 206.396C384.405 207.212 385.037 207.852 385.837 208.316C386.637 208.764 387.533 208.988 388.525 208.988ZM400.639 195.212H404.527V208.844H412.951V212.012H400.639V195.212ZM422.978 212.3C421.234 212.3 419.658 211.924 418.25 211.172C416.858 210.42 415.762 209.388 414.962 208.076C414.178 206.748 413.786 205.26 413.786 203.612C413.786 201.964 414.178 200.484 414.962 199.172C415.762 197.844 416.858 196.804 418.25 196.052C419.658 195.3 421.234 194.924 422.978 194.924C424.722 194.924 426.29 195.3 427.682 196.052C429.074 196.804 430.17 197.844 430.97 199.172C431.77 200.484 432.17 201.964 432.17 203.612C432.17 205.26 431.77 206.748 430.97 208.076C430.17 209.388 429.074 210.42 427.682 211.172C426.29 211.924 424.722 212.3 422.978 212.3ZM422.978 208.988C423.97 208.988 424.866 208.764 425.666 208.316C426.466 207.852 427.09 207.212 427.538 206.396C428.002 205.58 428.234 204.652 428.234 203.612C428.234 202.572 428.002 201.644 427.538 200.828C427.09 200.012 426.466 199.38 425.666 198.932C424.866 198.468 423.97 198.236 422.978 198.236C421.986 198.236 421.09 198.468 420.29 198.932C419.49 199.38 418.858 200.012 418.394 200.828C417.946 201.644 417.722 202.572 417.722 203.612C417.722 204.652 417.946 205.58 418.394 206.396C418.858 207.212 419.49 207.852 420.29 208.316C421.09 208.764 421.986 208.988 422.978 208.988ZM445.796 212.012L442.556 207.332H442.364H438.98V212.012H435.092V195.212H442.364C443.852 195.212 445.14 195.46 446.228 195.956C447.332 196.452 448.18 197.156 448.772 198.068C449.364 198.98 449.66 200.06 449.66 201.308C449.66 202.556 449.356 203.636 448.748 204.548C448.156 205.444 447.308 206.132 446.204 206.612L449.972 212.012H445.796ZM445.724 201.308C445.724 200.364 445.42 199.644 444.812 199.148C444.204 198.636 443.316 198.38 442.148 198.38H438.98V204.236H442.148C443.316 204.236 444.204 203.98 444.812 203.468C445.42 202.956 445.724 202.236 445.724 201.308Z" fill="white"/>
<path d="M152.85 79.0436C147.714 79.0436 143.058 77.9396 138.882 75.7316C134.754 73.4756 131.49 70.3796 129.09 66.4436C126.738 62.4596 125.562 57.9716 125.562 52.9796C125.562 47.9876 126.738 43.5236 129.09 39.5876C131.49 35.6036 134.754 32.5076 138.882 30.2996C143.058 28.0436 147.738 26.9156 152.922 26.9156C157.29 26.9156 161.226 27.6836 164.73 29.2196C168.282 30.7556 171.258 32.9636 173.658 35.8436L166.17 42.7556C162.762 38.8196 158.538 36.8516 153.498 36.8516C150.378 36.8516 147.594 37.5476 145.146 38.9396C142.698 40.2836 140.778 42.1796 139.386 44.6276C138.042 47.0756 137.37 49.8596 137.37 52.9796C137.37 56.0996 138.042 58.8836 139.386 61.3316C140.778 63.7796 142.698 65.6996 145.146 67.0916C147.594 68.4356 150.378 69.1076 153.498 69.1076C158.538 69.1076 162.762 67.1156 166.17 63.1316L173.658 70.0436C171.258 72.9716 168.282 75.2036 164.73 76.7396C161.178 78.2756 157.218 79.0436 152.85 79.0436ZM197.839 78.7556C193.759 78.7556 190.087 77.9156 186.823 76.2356C183.607 74.5076 181.087 72.1316 179.263 69.1076C177.439 66.0836 176.527 62.6516 176.527 58.8116C176.527 54.9716 177.439 51.5396 179.263 48.5156C181.087 45.4916 183.607 43.1396 186.823 41.4596C190.087 39.7316 193.759 38.8676 197.839 38.8676C201.919 38.8676 205.567 39.7316 208.783 41.4596C211.999 43.1396 214.519 45.4916 216.343 48.5156C218.167 51.5396 219.079 54.9716 219.079 58.8116C219.079 62.6516 218.167 66.0836 216.343 69.1076C214.519 72.1316 211.999 74.5076 208.783 76.2356C205.567 77.9156 201.919 78.7556 197.839 78.7556ZM197.839 69.5396C200.719 69.5396 203.071 68.5796 204.895 66.6596C206.767 64.6916 207.703 62.0756 207.703 58.8116C207.703 55.5476 206.767 52.9556 204.895 51.0356C203.071 49.0676 200.719 48.0836 197.839 48.0836C194.959 48.0836 192.583 49.0676 190.711 51.0356C188.839 52.9556 187.903 55.5476 187.903 58.8116C187.903 62.0756 188.839 64.6916 190.711 66.6596C192.583 68.5796 194.959 69.5396 197.839 69.5396ZM226.586 24.7556H237.818V78.1796H226.586V24.7556ZM266.675 78.7556C262.595 78.7556 258.923 77.9156 255.659 76.2356C252.443 74.5076 249.923 72.1316 248.099 69.1076C246.275 66.0836 245.363 62.6516 245.363 58.8116C245.363 54.9716 246.275 51.5396 248.099 48.5156C249.923 45.4916 252.443 43.1396 255.659 41.4596C258.923 39.7316 262.595 38.8676 266.675 38.8676C270.755 38.8676 274.403 39.7316 277.619 41.4596C280.835 43.1396 283.355 45.4916 285.179 48.5156C287.003 51.5396 287.915 54.9716 287.915 58.8116C287.915 62.6516 287.003 66.0836 285.179 69.1076C283.355 72.1316 280.835 74.5076 277.619 76.2356C274.403 77.9156 270.755 78.7556 266.675 78.7556ZM266.675 69.5396C269.555 69.5396 271.907 68.5796 273.731 66.6596C275.603 64.6916 276.539 62.0756 276.539 58.8116C276.539 55.5476 275.603 52.9556 273.731 51.0356C271.907 49.0676 269.555 48.0836 266.675 48.0836C263.795 48.0836 261.419 49.0676 259.547 51.0356C257.675 52.9556 256.739 55.5476 256.739 58.8116C256.739 62.0756 257.675 64.6916 259.547 66.6596C261.419 68.5796 263.795 69.5396 266.675 69.5396ZM306.15 44.5556C307.494 42.6836 309.294 41.2676 311.55 40.3076C313.854 39.3476 316.494 38.8676 319.47 38.8676V49.2356C318.222 49.1396 317.382 49.0916 316.95 49.0916C313.734 49.0916 311.214 50.0036 309.39 51.8276C307.566 53.6036 306.654 56.2916 306.654 59.8916V78.1796H295.422V39.4436H306.15V44.5556ZM127.784 139.044C122.648 139.044 117.992 137.94 113.816 135.732C109.688 133.476 106.424 130.38 104.024 126.444C101.672 122.46 100.496 117.972 100.496 112.98C100.496 107.988 101.672 103.524 104.024 99.5876C106.424 95.6036 109.688 92.5076 113.816 90.2996C117.992 88.0436 122.672 86.9156 127.856 86.9156C132.224 86.9156 136.16 87.6836 139.664 89.2196C143.216 90.7556 146.192 92.9636 148.592 95.8436L141.104 102.756C137.696 98.8196 133.472 96.8516 128.432 96.8516C125.312 96.8516 122.528 97.5476 120.08 98.9396C117.632 100.284 115.712 102.18 114.32 104.628C112.976 107.076 112.304 109.86 112.304 112.98C112.304 116.1 112.976 118.884 114.32 121.332C115.712 123.78 117.632 125.7 120.08 127.092C122.528 128.436 125.312 129.108 128.432 129.108C133.472 129.108 137.696 127.116 141.104 123.132L148.592 130.044C146.192 132.972 143.216 135.204 139.664 136.74C136.112 138.276 132.152 139.044 127.784 139.044ZM179.22 98.8676C184.02 98.8676 187.884 100.308 190.812 103.188C193.788 106.068 195.276 110.34 195.276 116.004V138.18H184.044V117.732C184.044 114.66 183.372 112.38 182.028 110.892C180.684 109.356 178.74 108.588 176.196 108.588C173.364 108.588 171.108 109.476 169.428 111.252C167.748 112.98 166.908 115.572 166.908 119.028V138.18H155.676V84.7556H166.908V103.476C168.396 101.988 170.196 100.86 172.308 100.092C174.42 99.2756 176.724 98.8676 179.22 98.8676ZM221.081 98.8676C227.081 98.8676 231.689 100.308 234.905 103.188C238.121 106.02 239.729 110.316 239.729 116.076V138.18H229.217V133.356C227.105 136.956 223.169 138.756 217.409 138.756C214.433 138.756 211.841 138.252 209.633 137.244C207.473 136.236 205.817 134.844 204.665 133.068C203.513 131.292 202.937 129.276 202.937 127.02C202.937 123.42 204.281 120.588 206.969 118.524C209.705 116.46 213.905 115.428 219.569 115.428H228.497C228.497 112.98 227.753 111.108 226.265 109.812C224.777 108.468 222.545 107.796 219.569 107.796C217.505 107.796 215.465 108.132 213.449 108.804C211.481 109.428 209.801 110.292 208.409 111.396L204.377 103.548C206.489 102.06 209.009 100.908 211.937 100.092C214.913 99.2756 217.961 98.8676 221.081 98.8676ZM220.217 131.196C222.137 131.196 223.841 130.764 225.329 129.9C226.817 128.988 227.873 127.668 228.497 125.94V121.98H220.793C216.185 121.98 213.881 123.492 213.881 126.516C213.881 127.956 214.433 129.108 215.537 129.972C216.689 130.788 218.249 131.196 220.217 131.196ZM260.623 104.556C261.967 102.684 263.767 101.268 266.023 100.308C268.327 99.3476 270.967 98.8676 273.943 98.8676V109.236C272.695 109.14 271.855 109.092 271.423 109.092C268.207 109.092 265.687 110.004 263.863 111.828C262.039 113.604 261.127 116.292 261.127 119.892V138.18H249.895V99.4436H260.623V104.556ZM306.941 136.308C305.837 137.124 304.469 137.748 302.837 138.18C301.253 138.564 299.573 138.756 297.797 138.756C293.189 138.756 289.613 137.58 287.069 135.228C284.573 132.876 283.325 129.42 283.325 124.86V108.948H277.349V100.308H283.325V90.8756H294.557V100.308H304.205V108.948H294.557V124.716C294.557 126.348 294.965 127.62 295.781 128.532C296.645 129.396 297.845 129.828 299.381 129.828C301.157 129.828 302.669 129.348 303.917 128.388L306.941 136.308ZM326.279 138.756C323.063 138.756 319.919 138.372 316.847 137.604C313.775 136.788 311.327 135.78 309.503 134.58L313.247 126.516C314.975 127.62 317.063 128.532 319.511 129.252C321.959 129.924 324.359 130.26 326.711 130.26C331.463 130.26 333.839 129.084 333.839 126.732C333.839 125.628 333.191 124.836 331.895 124.356C330.599 123.876 328.607 123.468 325.919 123.132C322.751 122.652 320.135 122.1 318.071 121.476C316.007 120.852 314.207 119.748 312.671 118.164C311.183 116.58 310.438 114.324 310.438 111.396C310.438 108.948 311.135 106.788 312.527 104.916C313.967 102.996 316.031 101.508 318.719 100.452C321.455 99.3956 324.671 98.8676 328.367 98.8676C331.103 98.8676 333.815 99.1796 336.503 99.8036C339.239 100.38 341.495 101.196 343.271 102.252L339.527 110.244C336.119 108.324 332.399 107.364 328.367 107.364C325.967 107.364 324.167 107.7 322.967 108.372C321.767 109.044 321.167 109.908 321.167 110.964C321.167 112.164 321.815 113.004 323.111 113.484C324.407 113.964 326.471 114.42 329.303 114.852C332.471 115.38 335.063 115.956 337.079 116.58C339.095 117.156 340.847 118.236 342.335 119.82C343.823 121.404 344.567 123.612 344.567 126.444C344.567 128.844 343.847 130.98 342.407 132.852C340.967 134.724 338.855 136.188 336.071 137.244C333.335 138.252 330.071 138.756 326.279 138.756Z" fill="url(#paint0_linear)"/>
<path d="M138.882 75.7316L138.402 76.6092L138.414 76.6157L138.882 75.7316ZM129.09 66.4436L128.229 66.952L128.232 66.9581L128.236 66.9642L129.09 66.4436ZM129.09 39.5876L128.233 39.0716L128.231 39.0747L129.09 39.5876ZM138.882 30.2996L139.354 31.1814L139.357 31.1794L138.882 30.2996ZM164.73 29.2196L164.328 30.1355L164.333 30.1375L164.73 29.2196ZM173.658 35.8436L174.336 36.5784L175.035 35.9337L174.426 35.2034L173.658 35.8436ZM166.17 42.7556L165.414 43.4102L166.09 44.1906L166.848 43.4904L166.17 42.7556ZM145.146 38.9396L145.627 39.8162L145.634 39.8126L145.64 39.8089L145.146 38.9396ZM139.386 44.6276L138.517 44.1333L138.513 44.1398L138.509 44.1464L139.386 44.6276ZM139.386 61.3316L138.509 61.8129L138.513 61.8194L138.517 61.8259L139.386 61.3316ZM145.146 67.0916L144.652 67.9609L144.658 67.9646L144.665 67.9682L145.146 67.0916ZM166.17 63.1316L166.848 62.3968L166.085 61.6924L165.41 62.4816L166.17 63.1316ZM173.658 70.0436L174.431 70.6776L175.029 69.9483L174.336 69.3088L173.658 70.0436ZM164.73 76.7396L164.333 75.8218L164.73 76.7396ZM152.85 78.0436C147.862 78.0436 143.369 76.9729 139.349 74.8476L138.414 76.6157C142.747 78.9063 147.566 80.0436 152.85 80.0436V78.0436ZM139.361 74.8541C135.384 72.6804 132.25 69.7061 129.944 65.923L128.236 66.9642C130.729 71.0531 134.124 74.2708 138.402 76.6091L139.361 74.8541ZM129.951 65.9352C127.697 62.1174 126.562 57.8074 126.562 52.9796H124.562C124.562 58.1358 125.779 62.8019 128.229 66.952L129.951 65.9352ZM126.562 52.9796C126.562 48.1517 127.697 43.8679 129.948 40.1006L128.231 39.0747C125.779 43.1794 124.562 47.8236 124.562 52.9796H126.562ZM129.946 40.1036C132.253 36.2751 135.383 33.305 139.354 31.1814L138.41 29.4178C134.124 31.7103 130.727 34.9322 128.233 39.0716L129.946 40.1036ZM139.357 31.1794C143.374 29.0094 147.888 27.9156 152.922 27.9156V25.9156C147.588 25.9156 142.742 27.0778 138.407 29.4198L139.357 31.1794ZM152.922 27.9156C157.171 27.9156 160.968 28.6623 164.328 30.1355L165.131 28.3038C161.484 26.7049 157.409 25.9156 152.922 25.9156V27.9156ZM164.333 30.1375C167.746 31.6134 170.593 33.7281 172.89 36.4838L174.426 35.2034C171.923 32.1991 168.818 29.8979 165.127 28.3018L164.333 30.1375ZM172.98 35.1088L165.492 42.0208L166.848 43.4904L174.336 36.5784L172.98 35.1088ZM166.926 42.101C163.335 37.954 158.839 35.8516 153.498 35.8516V37.8516C158.237 37.8516 162.189 39.6853 165.414 43.4102L166.926 42.101ZM153.498 35.8516C150.224 35.8516 147.266 36.5837 144.652 38.0703L145.64 39.8089C147.922 38.5116 150.532 37.8516 153.498 37.8516V35.8516ZM144.665 38.063C142.053 39.4969 139.999 41.5259 138.517 44.1333L140.255 45.1219C141.557 42.8334 143.343 41.0704 145.627 39.8162L144.665 38.063ZM138.509 44.1464C137.075 46.7585 136.37 49.7115 136.37 52.9796H138.37C138.37 50.0078 139.009 47.3927 140.262 45.1089L138.509 44.1464ZM136.37 52.9796C136.37 56.2478 137.075 59.2007 138.509 61.8129L140.262 60.8504C139.009 58.5665 138.37 55.9515 138.37 52.9796H136.37ZM138.517 61.8259C139.998 64.4304 142.047 66.4799 144.652 67.9609L145.64 66.2223C143.349 64.9193 141.558 63.1289 140.255 60.8373L138.517 61.8259ZM144.665 67.9682C147.277 69.4023 150.23 70.1076 153.498 70.1076V68.1076C150.526 68.1076 147.911 67.4689 145.627 66.215L144.665 67.9682ZM153.498 70.1076C158.843 70.1076 163.341 67.9775 166.93 63.7817L165.41 62.4816C162.183 66.2537 158.232 68.1076 153.498 68.1076V70.1076ZM165.492 63.8664L172.98 70.7784L174.336 69.3088L166.848 62.3968L165.492 63.8664ZM172.885 69.4097C170.588 72.2116 167.742 74.3476 164.333 75.8218L165.127 77.6575C168.822 76.0597 171.928 73.7317 174.431 70.6776L172.885 69.4097ZM164.333 75.8218C160.921 77.297 157.099 78.0436 152.85 78.0436V80.0436C157.337 80.0436 161.434 79.2542 165.127 77.6575L164.333 75.8218ZM186.823 76.2356L186.349 77.1165L186.357 77.1207L186.365 77.1248L186.823 76.2356ZM179.263 69.1076L178.406 69.6241L178.406 69.6241L179.263 69.1076ZM179.263 48.5156L178.406 47.9991L178.406 47.9991L179.263 48.5156ZM186.823 41.4596L187.286 42.346L187.291 42.3434L186.823 41.4596ZM208.783 41.4596L208.309 42.3406L208.32 42.346L208.783 41.4596ZM216.343 48.5156L217.199 47.9991L217.199 47.9991L216.343 48.5156ZM216.343 69.1076L217.199 69.6241L217.199 69.6241L216.343 69.1076ZM208.783 76.2356L209.246 77.122L209.256 77.1165L208.783 76.2356ZM204.895 66.6596L204.17 65.9704L204.17 65.9709L204.895 66.6596ZM204.895 51.0356L204.161 51.7154L204.17 51.7247L204.179 51.7337L204.895 51.0356ZM190.711 51.0356L191.427 51.7338L191.435 51.7248L190.711 51.0356ZM190.711 66.6596L189.986 67.3489L189.995 67.3577L190.711 66.6596ZM197.839 77.7556C193.9 77.7556 190.388 76.9458 187.28 75.3465L186.365 77.1248C189.786 78.8854 193.617 79.7556 197.839 79.7556V77.7556ZM187.296 75.3547C184.232 73.7086 181.847 71.4562 180.119 68.5911L178.406 69.6241C180.326 72.8071 182.981 75.3066 186.349 77.1165L187.296 75.3547ZM180.119 68.5911C178.397 65.7365 177.527 62.486 177.527 58.8116H175.527C175.527 62.8172 176.48 66.4307 178.406 69.6241L180.119 68.5911ZM177.527 58.8116C177.527 55.1372 178.397 51.8867 180.119 49.0321L178.406 47.9991C176.48 51.1925 175.527 54.806 175.527 58.8116H177.527ZM180.119 49.0321C181.846 46.1696 184.228 43.9435 187.286 42.346L186.36 40.5733C182.986 42.3357 180.328 44.8137 178.406 47.9991L180.119 49.0321ZM187.291 42.3434C190.396 40.6995 193.904 39.8676 197.839 39.8676V37.8676C193.613 37.8676 189.778 38.7638 186.355 40.5758L187.291 42.3434ZM197.839 39.8676C201.773 39.8676 205.255 40.6995 208.309 42.3405L209.256 40.5787C205.878 38.7637 202.064 37.8676 197.839 37.8676V39.8676ZM208.32 42.346C211.378 43.9435 213.76 46.1696 215.486 49.0321L217.199 47.9991C215.278 44.8137 212.62 42.3357 209.246 40.5733L208.32 42.346ZM215.486 49.0321C217.208 51.8867 218.079 55.1372 218.079 58.8116H220.079C220.079 54.806 219.125 51.1925 217.199 47.9991L215.486 49.0321ZM218.079 58.8116C218.079 62.486 217.208 65.7365 215.486 68.5911L217.199 69.6241C219.125 66.4307 220.079 62.8172 220.079 58.8116H218.079ZM215.486 68.5911C213.758 71.4562 211.373 73.7086 208.309 75.3547L209.256 77.1165C212.624 75.3066 215.279 72.8071 217.199 69.6241L215.486 68.5911ZM208.32 75.3493C205.264 76.9457 201.778 77.7556 197.839 77.7556V79.7556C202.06 79.7556 205.87 78.8855 209.246 77.122L208.32 75.3493ZM197.839 70.5396C200.966 70.5396 203.589 69.4856 205.62 67.3484L204.17 65.9709C202.552 67.6736 200.471 68.5396 197.839 68.5396V70.5396ZM205.619 67.3488C207.703 65.1586 208.703 62.2772 208.703 58.8116H206.703C206.703 61.874 205.831 64.2246 204.17 65.9704L205.619 67.3488ZM208.703 58.8116C208.703 55.3469 207.703 52.4833 205.611 50.3375L204.179 51.7337C205.831 53.4279 206.703 55.7483 206.703 58.8116H208.703ZM205.628 50.3559C203.6 48.1675 200.974 47.0836 197.839 47.0836V49.0836C200.463 49.0836 202.541 49.9678 204.161 51.7154L205.628 50.3559ZM197.839 47.0836C194.703 47.0836 192.059 48.167 189.986 50.3464L191.435 51.7248C193.106 49.9683 195.214 49.0836 197.839 49.0836V47.0836ZM189.995 50.3375C187.903 52.4833 186.903 55.3469 186.903 58.8116H188.903C188.903 55.7483 189.775 53.4279 191.427 51.7337L189.995 50.3375ZM186.903 58.8116C186.903 62.2772 187.903 65.1586 189.986 67.3488L191.435 65.9704C189.775 64.2246 188.903 61.874 188.903 58.8116H186.903ZM189.995 67.3577C192.07 69.4861 194.711 70.5396 197.839 70.5396V68.5396C195.206 68.5396 193.096 67.6732 191.427 65.9615L189.995 67.3577ZM226.586 24.7556V23.7556H225.586V24.7556H226.586ZM237.818 24.7556H238.818V23.7556H237.818V24.7556ZM237.818 78.1796V79.1796H238.818V78.1796H237.818ZM226.586 78.1796H225.586V79.1796H226.586V78.1796ZM226.586 25.7556H237.818V23.7556H226.586V25.7556ZM236.818 24.7556V78.1796H238.818V24.7556H236.818ZM237.818 77.1796H226.586V79.1796H237.818V77.1796ZM227.586 78.1796V24.7556H225.586V78.1796H227.586ZM255.659 76.2356L255.185 77.1165L255.193 77.1207L255.201 77.1248L255.659 76.2356ZM248.099 69.1076L247.242 69.6241L247.242 69.6241L248.099 69.1076ZM248.099 48.5156L247.242 47.9991L247.242 47.9991L248.099 48.5156ZM255.659 41.4596L256.122 42.346L256.126 42.3434L255.659 41.4596ZM277.619 41.4596L277.145 42.3406L277.156 42.346L277.619 41.4596ZM285.179 48.5156L286.035 47.9991L286.035 47.9991L285.179 48.5156ZM285.179 69.1076L286.035 69.6241L286.035 69.6241L285.179 69.1076ZM277.619 76.2356L278.082 77.122L278.092 77.1165L277.619 76.2356ZM273.731 66.6596L273.006 65.9704L273.006 65.9709L273.731 66.6596ZM273.731 51.0356L272.997 51.7154L273.006 51.7247L273.015 51.7337L273.731 51.0356ZM259.547 51.0356L260.263 51.7338L260.271 51.7248L259.547 51.0356ZM259.547 66.6596L258.822 67.3489L258.831 67.3577L259.547 66.6596ZM266.675 77.7556C262.736 77.7556 259.224 76.9458 256.116 75.3465L255.201 77.1248C258.622 78.8854 262.453 79.7556 266.675 79.7556V77.7556ZM256.132 75.3547C253.068 73.7086 250.683 71.4562 248.955 68.5911L247.242 69.6241C249.162 72.8071 251.817 75.3066 255.185 77.1165L256.132 75.3547ZM248.955 68.5911C247.233 65.7365 246.363 62.486 246.363 58.8116H244.363C244.363 62.8172 245.316 66.4307 247.242 69.6241L248.955 68.5911ZM246.363 58.8116C246.363 55.1372 247.233 51.8867 248.955 49.0321L247.242 47.9991C245.316 51.1925 244.363 54.806 244.363 58.8116H246.363ZM248.955 49.0321C250.681 46.1696 253.063 43.9435 256.122 42.346L255.196 40.5733C251.822 42.3357 249.164 44.8137 247.242 47.9991L248.955 49.0321ZM256.126 42.3434C259.232 40.6995 262.74 39.8676 266.675 39.8676V37.8676C262.449 37.8676 258.613 38.7638 255.191 40.5758L256.126 42.3434ZM266.675 39.8676C270.609 39.8676 274.091 40.6995 277.145 42.3405L278.092 40.5787C274.714 38.7637 270.9 37.8676 266.675 37.8676V39.8676ZM277.156 42.346C280.214 43.9435 282.596 46.1696 284.322 49.0321L286.035 47.9991C284.113 44.8137 281.455 42.3357 278.082 40.5733L277.156 42.346ZM284.322 49.0321C286.044 51.8867 286.915 55.1372 286.915 58.8116H288.915C288.915 54.806 287.961 51.1925 286.035 47.9991L284.322 49.0321ZM286.915 58.8116C286.915 62.486 286.044 65.7365 284.322 68.5911L286.035 69.6241C287.961 66.4307 288.915 62.8172 288.915 58.8116H286.915ZM284.322 68.5911C282.594 71.4562 280.209 73.7086 277.145 75.3547L278.092 77.1165C281.46 75.3066 284.115 72.8071 286.035 69.6241L284.322 68.5911ZM277.156 75.3493C274.099 76.9457 270.614 77.7556 266.675 77.7556V79.7556C270.896 79.7556 274.706 78.8855 278.082 77.122L277.156 75.3493ZM266.675 70.5396C269.802 70.5396 272.425 69.4856 274.456 67.3484L273.006 65.9709C271.388 67.6736 269.307 68.5396 266.675 68.5396V70.5396ZM274.455 67.3488C276.539 65.1586 277.539 62.2772 277.539 58.8116H275.539C275.539 61.874 274.667 64.2246 273.006 65.9704L274.455 67.3488ZM277.539 58.8116C277.539 55.3469 276.539 52.4833 274.447 50.3375L273.015 51.7337C274.666 53.4279 275.539 55.7483 275.539 58.8116H277.539ZM274.464 50.3559C272.436 48.1675 269.81 47.0836 266.675 47.0836V49.0836C269.299 49.0836 271.377 49.9678 272.997 51.7154L274.464 50.3559ZM266.675 47.0836C263.539 47.0836 260.895 48.167 258.822 50.3464L260.271 51.7248C261.942 49.9683 264.05 49.0836 266.675 49.0836V47.0836ZM258.831 50.3375C256.738 52.4833 255.739 55.3469 255.739 58.8116H257.739C257.739 55.7483 258.611 53.4279 260.263 51.7337L258.831 50.3375ZM255.739 58.8116C255.739 62.2772 256.739 65.1586 258.822 67.3488L260.271 65.9704C258.611 64.2246 257.739 61.874 257.739 58.8116H255.739ZM258.831 67.3577C260.906 69.4861 263.547 70.5396 266.675 70.5396V68.5396C264.042 68.5396 261.931 67.6732 260.263 65.9615L258.831 67.3577ZM306.15 44.5556H305.15V47.6631L306.963 45.1388L306.15 44.5556ZM311.55 40.3076L311.166 39.3845L311.159 39.3875L311.55 40.3076ZM319.47 38.8676H320.47V37.8676H319.47V38.8676ZM319.47 49.2356L319.394 50.2327L320.47 50.3155V49.2356H319.47ZM309.39 51.8276L310.088 52.5442L310.097 52.5347L309.39 51.8276ZM306.654 78.1796V79.1796H307.654V78.1796H306.654ZM295.422 78.1796H294.422V79.1796H295.422V78.1796ZM295.422 39.4436V38.4436H294.422V39.4436H295.422ZM306.15 39.4436H307.15V38.4436H306.15V39.4436ZM306.963 45.1388C308.193 43.4251 309.843 42.1209 311.942 41.2278L311.159 39.3875C308.745 40.4144 306.796 41.9421 305.338 43.9724L306.963 45.1388ZM311.935 41.2307C314.096 40.3303 316.601 39.8676 319.47 39.8676V37.8676C316.387 37.8676 313.613 38.365 311.166 39.3845L311.935 41.2307ZM318.47 38.8676V49.2356H320.47V38.8676H318.47ZM319.547 48.2386C318.304 48.143 317.427 48.0916 316.95 48.0916V50.0916C317.338 50.0916 318.14 50.1363 319.394 50.2327L319.547 48.2386ZM316.95 48.0916C313.538 48.0916 310.739 49.0652 308.683 51.1205L310.097 52.5347C311.69 50.9421 313.93 50.0916 316.95 50.0916V48.0916ZM308.693 51.1112C306.607 53.1421 305.654 56.1352 305.654 59.8916H307.654C307.654 56.448 308.526 54.0652 310.088 52.5441L308.693 51.1112ZM305.654 59.8916V78.1796H307.654V59.8916H305.654ZM306.654 77.1796H295.422V79.1796H306.654V77.1796ZM296.422 78.1796V39.4436H294.422V78.1796H296.422ZM295.422 40.4436H306.15V38.4436H295.422V40.4436ZM305.15 39.4436V44.5556H307.15V39.4436H305.15ZM113.816 135.732L113.336 136.609L113.348 136.616L113.816 135.732ZM104.024 126.444L103.162 126.952L103.166 126.958L103.17 126.964L104.024 126.444ZM104.024 99.5876L103.167 99.0716L103.165 99.0747L104.024 99.5876ZM113.816 90.2996L114.287 91.1814L114.291 91.1794L113.816 90.2996ZM139.664 89.2196L139.262 90.1355L139.267 90.1375L139.664 89.2196ZM148.592 95.8436L149.27 96.5784L149.968 95.9337L149.36 95.2034L148.592 95.8436ZM141.104 102.756L140.348 103.41L141.023 104.191L141.782 103.49L141.104 102.756ZM120.08 98.9396L120.561 99.8162L120.567 99.8126L120.574 99.8089L120.08 98.9396ZM114.32 104.628L113.45 104.133L113.447 104.14L113.443 104.146L114.32 104.628ZM114.32 121.332L113.443 121.813L113.447 121.819L113.45 121.826L114.32 121.332ZM120.08 127.092L119.585 127.961L119.592 127.965L119.598 127.968L120.08 127.092ZM141.104 123.132L141.782 122.397L141.019 121.692L140.344 122.482L141.104 123.132ZM148.592 130.044L149.365 130.678L149.963 129.948L149.27 129.309L148.592 130.044ZM139.664 136.74L139.267 135.822L139.664 136.74ZM127.784 138.044C122.796 138.044 118.303 136.973 114.283 134.848L113.348 136.616C117.68 138.906 122.499 140.044 127.784 140.044V138.044ZM114.295 134.854C110.318 132.68 107.184 129.706 104.877 125.923L103.17 126.964C105.663 131.053 109.057 134.271 113.336 136.609L114.295 134.854ZM104.885 125.935C102.631 122.117 101.496 117.807 101.496 112.98H99.4955C99.4955 118.136 100.712 122.802 103.162 126.952L104.885 125.935ZM101.496 112.98C101.496 108.152 102.631 103.868 104.882 100.101L103.165 99.0747C100.712 103.179 99.4955 107.824 99.4955 112.98H101.496ZM104.88 100.104C107.186 96.2751 110.317 93.305 114.287 91.1814L113.344 89.4178C109.058 91.7103 105.661 94.9322 103.167 99.0716L104.88 100.104ZM114.291 91.1794C118.308 89.0094 122.822 87.9156 127.856 87.9156V85.9156C122.521 85.9156 117.675 87.0778 113.34 89.4198L114.291 91.1794ZM127.856 87.9156C132.105 87.9156 135.901 88.6623 139.262 90.1355L140.065 88.3038C136.418 86.7049 132.342 85.9156 127.856 85.9156V87.9156ZM139.267 90.1375C142.68 91.6134 145.527 93.7281 147.823 96.4838L149.36 95.2034C146.856 92.1991 143.751 89.8979 140.06 88.3018L139.267 90.1375ZM147.913 95.1088L140.425 102.021L141.782 103.49L149.27 96.5784L147.913 95.1088ZM141.859 102.101C138.269 97.954 133.772 95.8516 128.432 95.8516V97.8516C133.171 97.8516 137.122 99.6853 140.348 103.41L141.859 102.101ZM128.432 95.8516C125.157 95.8516 122.2 96.5837 119.585 98.0703L120.574 99.8089C122.855 98.5116 125.466 97.8516 128.432 97.8516V95.8516ZM119.598 98.063C116.987 99.4969 114.933 101.526 113.45 104.133L115.189 105.122C116.49 102.833 118.276 101.07 120.561 99.8162L119.598 98.063ZM113.443 104.146C112.009 106.759 111.304 109.711 111.304 112.98H113.304C113.304 110.008 113.942 107.393 115.196 105.109L113.443 104.146ZM111.304 112.98C111.304 116.248 112.009 119.201 113.443 121.813L115.196 120.85C113.942 118.567 113.304 115.951 113.304 112.98H111.304ZM113.45 121.826C114.931 124.43 116.981 126.48 119.585 127.961L120.574 126.222C118.282 124.919 116.492 123.129 115.189 120.837L113.45 121.826ZM119.598 127.968C122.21 129.402 125.163 130.108 128.432 130.108V128.108C125.46 128.108 122.845 127.469 120.561 126.215L119.598 127.968ZM128.432 130.108C133.777 130.108 138.274 127.978 141.863 123.782L140.344 122.482C137.117 126.254 133.166 128.108 128.432 128.108V130.108ZM140.425 123.866L147.913 130.778L149.27 129.309L141.782 122.397L140.425 123.866ZM147.818 129.41C145.521 132.212 142.676 134.348 139.267 135.822L140.06 137.657C143.755 136.06 146.862 133.732 149.365 130.678L147.818 129.41ZM139.267 135.822C135.855 137.297 132.033 138.044 127.784 138.044V140.044C132.27 140.044 136.368 139.254 140.06 137.657L139.267 135.822ZM190.812 103.188L190.111 103.901L190.117 103.906L190.812 103.188ZM195.276 138.18V139.18H196.276V138.18H195.276ZM184.044 138.18H183.044V139.18H184.044V138.18ZM182.028 110.892L181.276 111.55L181.281 111.556L181.286 111.562L182.028 110.892ZM169.428 111.252L170.145 111.949L170.155 111.939L169.428 111.252ZM166.908 138.18V139.18H167.908V138.18H166.908ZM155.676 138.18H154.676V139.18H155.676V138.18ZM155.676 84.7556V83.7556H154.676V84.7556H155.676ZM166.908 84.7556H167.908V83.7556H166.908V84.7556ZM166.908 103.476H165.908V105.89L167.615 104.183L166.908 103.476ZM172.308 100.092L172.65 101.031L172.659 101.028L172.669 101.024L172.308 100.092ZM179.22 99.8676C183.805 99.8676 187.401 101.235 190.111 103.901L191.513 102.475C188.367 99.3798 184.235 97.8676 179.22 97.8676V99.8676ZM190.117 103.906C192.835 106.537 194.276 110.508 194.276 116.004H196.276C196.276 110.171 194.741 105.598 191.508 102.469L190.117 103.906ZM194.276 116.004V138.18H196.276V116.004H194.276ZM195.276 137.18H184.044V139.18H195.276V137.18ZM185.044 138.18V117.732H183.044V138.18H185.044ZM185.044 117.732C185.044 114.539 184.349 111.97 182.77 110.221L181.286 111.562C182.395 112.79 183.044 114.78 183.044 117.732H185.044ZM182.781 110.233C181.202 108.428 178.952 107.588 176.196 107.588V109.588C178.529 109.588 180.167 110.283 181.276 111.55L182.781 110.233ZM176.196 107.588C173.137 107.588 170.601 108.557 168.702 110.564L170.155 111.939C171.615 110.395 173.592 109.588 176.196 109.588V107.588ZM168.711 110.555C166.784 112.537 165.908 115.424 165.908 119.028H167.908C167.908 115.719 168.713 113.422 170.145 111.949L168.711 110.555ZM165.908 119.028V138.18H167.908V119.028H165.908ZM166.908 137.18H155.676V139.18H166.908V137.18ZM156.676 138.18V84.7556H154.676V138.18H156.676ZM155.676 85.7556H166.908V83.7556H155.676V85.7556ZM165.908 84.7556V103.476H167.908V84.7556H165.908ZM167.615 104.183C168.993 102.805 170.666 101.753 172.65 101.031L171.966 99.1518C169.727 99.9663 167.799 101.17 166.201 102.769L167.615 104.183ZM172.669 101.024C174.654 100.257 176.835 99.8676 179.22 99.8676V97.8676C176.614 97.8676 174.186 98.2941 171.948 99.1588L172.669 101.024ZM234.905 103.188L234.238 103.933L234.245 103.938L234.905 103.188ZM239.729 138.18V139.18H240.729V138.18H239.729ZM229.217 138.18H228.217V139.18H229.217V138.18ZM229.217 133.356H230.217V129.675L228.355 132.85L229.217 133.356ZM209.633 137.244L209.211 138.15L209.218 138.153L209.633 137.244ZM204.665 133.068L205.504 132.523L205.504 132.523L204.665 133.068ZM206.969 118.524L206.367 117.725L206.36 117.73L206.969 118.524ZM228.497 115.428V116.428H229.497V115.428H228.497ZM226.265 109.812L225.595 110.554L225.602 110.56L225.609 110.566L226.265 109.812ZM213.449 108.804L213.752 109.757L213.759 109.755L213.766 109.752L213.449 108.804ZM208.409 111.396L207.52 111.853L208.077 112.936L209.031 112.179L208.409 111.396ZM204.377 103.548L203.801 102.73L203.091 103.231L203.488 104.005L204.377 103.548ZM211.937 100.092L211.673 99.1272L211.669 99.1283L211.937 100.092ZM225.329 129.9L225.832 130.764L225.842 130.758L225.852 130.752L225.329 129.9ZM228.497 125.94L229.438 126.279L229.497 126.115V125.94H228.497ZM228.497 121.98H229.497V120.98H228.497V121.98ZM215.537 129.972L214.921 130.759L214.94 130.774L214.959 130.788L215.537 129.972ZM221.081 99.8676C226.931 99.8676 231.267 101.271 234.238 103.933L235.573 102.443C232.112 99.344 227.232 97.8676 221.081 97.8676V99.8676ZM234.245 103.938C237.178 106.521 238.729 110.499 238.729 116.076H240.729C240.729 110.132 239.065 105.518 235.566 102.437L234.245 103.938ZM238.729 116.076V138.18H240.729V116.076H238.729ZM239.729 137.18H229.217V139.18H239.729V137.18ZM230.217 138.18V133.356H228.217V138.18H230.217ZM228.355 132.85C226.488 136.033 222.966 137.756 217.409 137.756V139.756C223.373 139.756 227.723 137.879 230.08 133.862L228.355 132.85ZM217.409 137.756C214.545 137.756 212.1 137.271 210.049 136.334L209.218 138.153C211.583 139.233 214.322 139.756 217.409 139.756V137.756ZM210.056 136.337C208.044 135.398 206.542 134.123 205.504 132.523L203.826 133.612C205.093 135.564 206.903 137.073 209.211 138.15L210.056 136.337ZM205.504 132.523C204.465 130.92 203.937 129.096 203.937 127.02H201.937C201.937 129.455 202.562 131.663 203.826 133.612L205.504 132.523ZM203.937 127.02C203.937 123.708 205.154 121.178 207.578 119.317L206.36 117.73C203.409 119.997 201.937 123.131 201.937 127.02H203.937ZM207.572 119.322C210.053 117.45 213.993 116.428 219.569 116.428V114.428C213.818 114.428 209.358 115.469 206.367 117.725L207.572 119.322ZM219.569 116.428H228.497V114.428H219.569V116.428ZM229.497 115.428C229.497 112.766 228.679 110.588 226.922 109.058L225.609 110.566C226.828 111.627 227.497 113.193 227.497 115.428H229.497ZM226.936 109.07C225.192 107.495 222.676 106.796 219.569 106.796V108.796C222.415 108.796 224.363 109.44 225.595 110.554L226.936 109.07ZM219.569 106.796C217.395 106.796 215.248 107.15 213.133 107.855L213.766 109.752C215.683 109.113 217.616 108.796 219.569 108.796V106.796ZM213.147 107.85C211.082 108.505 209.289 109.421 207.788 110.612L209.031 112.179C210.314 111.162 211.881 110.35 213.752 109.757L213.147 107.85ZM209.299 110.939L205.267 103.091L203.488 104.005L207.52 111.853L209.299 110.939ZM204.953 104.365C206.957 102.953 209.369 101.846 212.206 101.055L211.669 99.1283C208.65 99.9697 206.022 101.166 203.801 102.73L204.953 104.365ZM212.202 101.056C215.091 100.264 218.05 99.8676 221.081 99.8676V97.8676C217.873 97.8676 214.736 98.2873 211.673 99.1272L212.202 101.056ZM220.217 132.196C222.293 132.196 224.174 131.727 225.832 130.764L224.827 129.035C223.509 129.8 221.982 130.196 220.217 130.196V132.196ZM225.852 130.752C227.544 129.715 228.741 128.209 229.438 126.279L227.557 125.6C227.006 127.127 226.091 128.26 224.807 129.047L225.852 130.752ZM229.497 125.94V121.98H227.497V125.94H229.497ZM228.497 120.98H220.793V122.98H228.497V120.98ZM220.793 120.98C218.412 120.98 216.452 121.365 215.061 122.278C213.596 123.239 212.881 124.706 212.881 126.516H214.881C214.881 125.302 215.319 124.5 216.158 123.95C217.071 123.351 218.567 122.98 220.793 122.98V120.98ZM212.881 126.516C212.881 128.253 213.567 129.7 214.921 130.759L216.154 129.184C215.3 128.516 214.881 127.658 214.881 126.516H212.881ZM214.959 130.788C216.335 131.762 218.122 132.196 220.217 132.196V130.196C218.377 130.196 217.044 129.813 216.115 129.156L214.959 130.788ZM260.623 104.556H259.623V107.663L261.435 105.139L260.623 104.556ZM266.023 100.308L265.638 99.3845L265.631 99.3875L266.023 100.308ZM273.943 98.8676H274.943V97.8676H273.943V98.8676ZM273.943 109.236L273.866 110.233L274.943 110.316V109.236H273.943ZM263.863 111.828L264.561 112.544L264.57 112.535L263.863 111.828ZM261.127 138.18V139.18H262.127V138.18H261.127ZM249.895 138.18H248.895V139.18H249.895V138.18ZM249.895 99.4436V98.4436H248.895V99.4436H249.895ZM260.623 99.4436H261.623V98.4436H260.623V99.4436ZM261.435 105.139C262.666 103.425 264.316 102.121 266.414 101.228L265.631 99.3875C263.218 100.414 261.268 101.942 259.811 103.972L261.435 105.139ZM266.408 101.231C268.569 100.33 271.074 99.8676 273.943 99.8676V97.8676C270.86 97.8676 268.085 98.365 265.638 99.3845L266.408 101.231ZM272.943 98.8676V109.236H274.943V98.8676H272.943ZM274.02 108.239C272.777 108.143 271.899 108.092 271.423 108.092V110.092C271.81 110.092 272.613 110.136 273.866 110.233L274.02 108.239ZM271.423 108.092C268.011 108.092 265.211 109.065 263.156 111.121L264.57 112.535C266.163 110.942 268.403 110.092 271.423 110.092V108.092ZM263.165 111.111C261.08 113.142 260.127 116.135 260.127 119.892H262.127C262.127 116.448 262.998 114.065 264.561 112.544L263.165 111.111ZM260.127 119.892V138.18H262.127V119.892H260.127ZM261.127 137.18H249.895V139.18H261.127V137.18ZM250.895 138.18V99.4436H248.895V138.18H250.895ZM249.895 100.444H260.623V98.4436H249.895V100.444ZM259.623 99.4436V104.556H261.623V99.4436H259.623ZM306.941 136.308L307.536 137.112L308.147 136.66L307.876 135.951L306.941 136.308ZM302.837 138.18L303.073 139.151L303.083 139.149L303.093 139.146L302.837 138.18ZM287.069 135.228L286.384 135.955L286.391 135.962L287.069 135.228ZM283.325 108.948H284.325V107.948H283.325V108.948ZM277.349 108.948H276.349V109.948H277.349V108.948ZM277.349 100.308V99.3076H276.349V100.308H277.349ZM283.325 100.308V101.308H284.325V100.308H283.325ZM283.325 90.8756V89.8756H282.325V90.8756H283.325ZM294.557 90.8756H295.557V89.8756H294.557V90.8756ZM294.557 100.308H293.557V101.308H294.557V100.308ZM304.205 100.308H305.205V99.3076H304.205V100.308ZM304.205 108.948V109.948H305.205V108.948H304.205ZM294.557 108.948V107.948H293.557V108.948H294.557ZM295.781 128.532L295.036 129.198L295.055 129.219L295.074 129.239L295.781 128.532ZM303.917 128.388L304.852 128.031L304.372 126.776L303.308 127.595L303.917 128.388ZM306.347 135.503C305.365 136.229 304.119 136.806 302.582 137.213L303.093 139.146C304.82 138.689 306.31 138.018 307.536 137.112L306.347 135.503ZM302.602 137.208C301.102 137.571 299.501 137.756 297.797 137.756V139.756C299.646 139.756 301.405 139.556 303.073 139.151L302.602 137.208ZM297.797 137.756C293.356 137.756 290.053 136.625 287.748 134.493L286.391 135.962C289.173 138.535 293.023 139.756 297.797 139.756V137.756ZM287.755 134.5C285.52 132.393 284.325 129.239 284.325 124.86H282.325C282.325 129.6 283.627 133.358 286.384 135.955L287.755 134.5ZM284.325 124.86V108.948H282.325V124.86H284.325ZM283.325 107.948H277.349V109.948H283.325V107.948ZM278.349 108.948V100.308H276.349V108.948H278.349ZM277.349 101.308H283.325V99.3076H277.349V101.308ZM284.325 100.308V90.8756H282.325V100.308H284.325ZM283.325 91.8756H294.557V89.8756H283.325V91.8756ZM293.557 90.8756V100.308H295.557V90.8756H293.557ZM294.557 101.308H304.205V99.3076H294.557V101.308ZM303.205 100.308V108.948H305.205V100.308H303.205ZM304.205 107.948H294.557V109.948H304.205V107.948ZM293.557 108.948V124.716H295.557V108.948H293.557ZM293.557 124.716C293.557 126.51 294.008 128.049 295.036 129.198L296.527 127.865C295.923 127.19 295.557 126.185 295.557 124.716H293.557ZM295.074 129.239C296.171 130.336 297.652 130.828 299.381 130.828V128.828C298.039 128.828 297.12 128.456 296.489 127.825L295.074 129.239ZM299.381 130.828C301.348 130.828 303.082 130.292 304.527 129.18L303.308 127.595C302.257 128.404 300.967 128.828 299.381 128.828V130.828ZM302.983 128.744L306.007 136.664L307.876 135.951L304.852 128.031L302.983 128.744ZM316.847 137.604L316.59 138.57L316.597 138.572L316.604 138.574L316.847 137.604ZM309.503 134.58L308.595 134.159L308.232 134.941L308.953 135.415L309.503 134.58ZM313.247 126.516L313.785 125.673L312.821 125.057L312.339 126.095L313.247 126.516ZM319.511 129.252L319.228 130.211L319.237 130.214L319.246 130.216L319.511 129.252ZM331.895 124.356L331.547 125.293L331.547 125.293L331.895 124.356ZM325.919 123.132L325.769 124.12L325.782 124.122L325.794 124.124L325.919 123.132ZM318.071 121.476L318.36 120.518L318.36 120.518L318.071 121.476ZM312.671 118.164L311.942 118.848L311.947 118.854L311.953 118.86L312.671 118.164ZM312.527 104.916L311.726 104.316L311.724 104.319L312.527 104.916ZM318.719 100.452L318.358 99.5187L318.353 99.5209L318.719 100.452ZM336.503 99.8036L336.276 100.778L336.286 100.78L336.296 100.782L336.503 99.8036ZM343.271 102.252L344.176 102.676L344.56 101.855L343.782 101.392L343.271 102.252ZM339.527 110.244L339.036 111.115L339.975 111.644L340.432 110.668L339.527 110.244ZM322.967 108.372L322.478 107.499L322.478 107.499L322.967 108.372ZM323.111 113.484L323.458 112.546L323.458 112.546L323.111 113.484ZM329.303 114.852L329.467 113.865L329.453 113.863L329.303 114.852ZM337.079 116.58L336.783 117.535L336.793 117.538L336.804 117.541L337.079 116.58ZM342.335 119.82L341.606 120.504L341.606 120.504L342.335 119.82ZM342.407 132.852L343.199 133.461L343.199 133.461L342.407 132.852ZM336.071 137.244L336.416 138.182L336.425 138.179L336.071 137.244ZM326.279 137.756C323.143 137.756 320.08 137.381 317.089 136.633L316.604 138.574C319.757 139.362 322.982 139.756 326.279 139.756V137.756ZM317.103 136.637C314.092 135.837 311.755 134.865 310.052 133.744L308.953 135.415C310.898 136.695 313.457 137.738 316.59 138.57L317.103 136.637ZM310.41 135.001L314.154 126.937L312.339 126.095L308.595 134.159L310.41 135.001ZM312.708 127.358C314.532 128.524 316.711 129.471 319.228 130.211L319.793 128.292C317.414 127.593 315.417 126.716 313.785 125.673L312.708 127.358ZM319.246 130.216C321.773 130.91 324.262 131.26 326.711 131.26V129.26C324.455 129.26 322.144 128.937 319.775 128.287L319.246 130.216ZM326.711 131.26C329.137 131.26 331.104 130.965 332.5 130.274C333.212 129.922 333.807 129.45 334.222 128.834C334.642 128.21 334.839 127.497 334.839 126.732H332.839C332.839 127.143 332.738 127.458 332.564 127.717C332.385 127.982 332.089 128.246 331.613 128.481C330.633 128.967 329.036 129.26 326.711 129.26V131.26ZM334.839 126.732C334.839 125.968 334.609 125.266 334.126 124.676C333.657 124.103 333 123.699 332.242 123.418L331.547 125.293C332.085 125.492 332.4 125.725 332.579 125.943C332.744 126.146 332.839 126.391 332.839 126.732H334.839ZM332.242 123.418C330.834 122.897 328.749 122.478 326.043 122.139L325.794 124.124C328.464 124.458 330.363 124.855 331.547 125.293L332.242 123.418ZM326.068 122.143C322.927 121.667 320.362 121.124 318.36 120.518L317.781 122.433C319.907 123.076 322.574 123.636 325.769 124.12L326.068 122.143ZM318.36 120.518C316.463 119.945 314.809 118.932 313.388 117.467L311.953 118.86C313.604 120.563 315.551 121.758 317.781 122.433L318.36 120.518ZM313.399 117.479C312.139 116.137 311.438 114.159 311.438 111.396H309.438C309.438 114.488 310.226 117.022 311.942 118.848L313.399 117.479ZM311.438 111.396C311.438 109.151 312.072 107.203 313.329 105.512L311.724 104.319C310.197 106.372 309.438 108.744 309.438 111.396H311.438ZM313.327 105.516C314.634 103.772 316.533 102.384 319.084 101.382L318.353 99.5209C315.528 100.631 313.299 102.22 311.727 104.316L313.327 105.516ZM319.079 101.385C321.674 100.383 324.763 99.8676 328.367 99.8676V97.8676C324.578 97.8676 321.235 98.4085 318.358 99.5187L319.079 101.385ZM328.367 99.8676C331.026 99.8676 333.662 100.171 336.276 100.778L336.729 98.8295C333.967 98.1885 331.179 97.8676 328.367 97.8676V99.8676ZM336.296 100.782C338.96 101.343 341.105 102.127 342.759 103.111L343.782 101.392C341.884 100.264 339.517 99.4163 336.709 98.8251L336.296 100.782ZM342.365 101.827L338.621 109.819L340.432 110.668L344.176 102.676L342.365 101.827ZM340.017 109.372C336.455 107.365 332.565 106.364 328.367 106.364V108.364C332.232 108.364 335.782 109.282 339.036 111.115L340.017 109.372ZM328.367 106.364C325.906 106.364 323.901 106.702 322.478 107.499L323.455 109.244C324.432 108.697 326.027 108.364 328.367 108.364V106.364ZM322.478 107.499C321.072 108.286 320.167 109.435 320.167 110.964H322.167C322.167 110.38 322.461 109.801 323.455 109.244L322.478 107.499ZM320.167 110.964C320.167 111.754 320.384 112.487 320.861 113.104C321.329 113.712 321.992 114.136 322.763 114.421L323.458 112.546C322.933 112.352 322.624 112.116 322.444 111.883C322.273 111.66 322.167 111.373 322.167 110.964H320.167ZM322.763 114.421C324.16 114.939 326.308 115.406 329.152 115.84L329.453 113.863C326.633 113.433 324.653 112.989 323.458 112.546L322.763 114.421ZM329.138 115.838C332.282 116.362 334.826 116.929 336.783 117.535L337.374 115.624C335.299 114.982 332.659 114.397 329.467 113.865L329.138 115.838ZM336.804 117.541C338.64 118.066 340.237 119.047 341.606 120.504L343.063 119.135C341.456 117.424 339.549 116.246 337.353 115.618L336.804 117.541ZM341.606 120.504C342.872 121.852 343.567 123.786 343.567 126.444H345.567C345.567 123.437 344.773 120.955 343.063 119.135L341.606 120.504ZM343.567 126.444C343.567 128.627 342.917 130.548 341.614 132.242L343.199 133.461C344.776 131.411 345.567 129.06 345.567 126.444H343.567ZM341.614 132.242C340.313 133.933 338.371 135.301 335.716 136.309L336.425 138.179C339.338 137.074 341.62 135.514 343.199 133.461L341.614 132.242ZM335.725 136.305C333.127 137.262 329.986 137.756 326.279 137.756V139.756C330.155 139.756 333.542 139.241 336.416 138.182L335.725 136.305Z" fill="#F0F0F0"/>
<defs>
<linearGradient id="paint0_linear" x1="104.263" y1="98.3425" x2="343.756" y2="98.49" gradientUnits="userSpaceOnUse">
<stop offset="0.00730526"/>
<stop offset="0.9999" stop-color="white"/>
<stop offset="1" stop-color="#E5E5E5"/>
</linearGradient>
</defs>
</svg>
