<svg width="453" height="233" viewBox="0 0 453 233" fill="none" xmlns="http://www.w3.org/2000/svg">
<rect x="170.94" y="0.183075" width="102.376" height="162.493" fill="#FFFF00"/>
<path d="M223.069 113.706L104.435 113.706C85.1641 113.706 69.5423 98.0839 69.5423 78.8135V78.8135C69.5423 59.543 85.1641 43.9212 104.435 43.9212L223.069 43.9212V113.706Z" fill="#FF0000" fill-opacity="0.34"/>
<path d="M222.274 113.706L61.7694 113.706C42.4989 113.706 26.8772 98.0839 26.8772 78.8135V78.8135C26.8772 59.543 42.499 43.9212 61.7695 43.9212L222.274 43.9212V113.706Z" fill="#FF0000" fill-opacity="0.33"/>
<path d="M223.017 113.706L83.447 113.706C64.1765 113.706 48.5547 98.0839 48.5547 78.8135V78.8135C48.5547 59.543 64.1765 43.9212 83.447 43.9212L223.017 43.9212V113.706Z" fill="#FF0000" fill-opacity="0.33"/>
<path d="M222.422 69.4531L124.501 69.4531C105.353 69.4531 89.8307 53.9309 89.8307 34.7832V34.7832C89.8307 15.6356 105.353 0.113314 124.501 0.113314L222.422 0.113314V69.4531Z" fill="#FF7F00" fill-opacity="0.34"/>
<path d="M222.422 69.4531L103.565 69.4531C84.4175 69.4531 68.8952 53.9309 68.8952 34.7832V34.7832C68.8952 15.6356 84.4175 0.113314 103.565 0.113314L222.422 0.113314V69.4531Z" fill="#FF7F00" fill-opacity="0.33"/>
<path d="M222.422 69.4531L82.6297 69.4531C63.4821 69.4531 47.9598 53.9309 47.9598 34.7832V34.7832C47.9598 15.6356 63.4821 0.11331 82.6297 0.11331L222.422 0.11331V69.4531Z" fill="#FF7F00" fill-opacity="0.33"/>
<path d="M222.146 94.4143L358.225 94.4143C377.495 94.4143 393.117 110.036 393.117 129.307V129.307C393.117 148.577 377.495 164.199 358.225 164.199L222.146 164.199L222.146 94.4143Z" fill="#00FF00" fill-opacity="0.34"/>
<path d="M221.678 94.4143L391.952 94.4143C411.222 94.4143 426.844 110.036 426.844 129.307V129.307C426.844 148.577 411.222 164.199 391.952 164.199L221.678 164.199L221.678 94.4143Z" fill="#00FF00" fill-opacity="0.33"/>
<path d="M221.678 94.4143L417.597 94.4143C436.868 94.4143 452.49 110.036 452.49 129.307V129.307C452.49 148.577 436.868 164.199 417.597 164.199L221.678 164.199L221.678 94.4143Z" fill="#00FF00" fill-opacity="0.33"/>
<path d="M221.678 43.9209L343.967 43.9209C363.238 43.9209 378.86 59.5428 378.86 78.8133V78.8133C378.86 98.0838 363.238 113.706 343.967 113.706L221.678 113.706L221.678 43.9209Z" fill="#0000FF" fill-opacity="0.34"/>
<path d="M221.678 43.9209L365.401 43.9209C384.672 43.9209 400.293 59.5428 400.293 78.8133V78.8133C400.293 98.0838 384.672 113.706 365.401 113.706L221.678 113.706L221.678 43.9209Z" fill="#0000FF" fill-opacity="0.33"/>
<path d="M221.678 43.9209L386.835 43.9209C406.105 43.9209 421.727 59.5427 421.727 78.8133V78.8133C421.727 98.0838 406.105 113.706 386.835 113.706L221.678 113.706L221.678 43.9209Z" fill="#0000FF" fill-opacity="0.33"/>
<path d="M221.678 0.111522L319.376 0.111522C338.647 0.111522 354.269 15.7334 354.269 35.0039V35.0039C354.269 54.2744 338.647 69.8962 319.376 69.8962H221.678V0.111522Z" fill="#4B0082" fill-opacity="0.33"/>
<path d="M221.678 0.356073L340.434 0.356073C359.637 0.356073 375.204 15.9232 375.204 35.1261V35.1261C375.204 54.3291 359.637 69.8962 340.434 69.8962H221.678V0.356073Z" fill="#4B0082" fill-opacity="0.33"/>
<path d="M221.678 0.111557L361.247 0.111557C380.518 0.111557 396.14 15.7334 396.14 35.0039V35.0039C396.14 54.2744 380.518 69.8963 361.247 69.8963H221.678V0.111557Z" fill="#4B0082" fill-opacity="0.34"/>
<path d="M221.226 164.199L97.1167 164.199C77.8462 164.199 62.2244 148.577 62.2244 129.307V129.307C62.2244 110.036 77.8462 94.4144 97.1167 94.4144L221.226 94.4144L221.226 164.199Z" fill="#9400D3" fill-opacity="0.33"/>
<path d="M221.394 164.199L67.4719 164.199C48.2014 164.199 32.5795 148.577 32.5795 129.307V129.307C32.5795 110.036 48.2014 94.4144 67.4719 94.4144L221.394 94.4144L221.394 164.199Z" fill="#9400D3" fill-opacity="0.34"/>
<path d="M221.116 164.199L37.382 164.199C18.1115 164.199 2.48973 148.577 2.48972 129.307V129.307C2.48972 110.036 18.1116 94.4144 37.3821 94.4144L221.116 94.4144L221.116 164.199Z" fill="#9400D3" fill-opacity="0.33"/>
<path d="M6.1733 197.923H0.797302V194.755H15.4373V197.923H10.0613V211.555H6.1733V197.923ZM32.9372 194.755V211.555H29.0492V204.667H21.4172V211.555H17.5292V194.755H21.4172V201.379H29.0492V194.755H32.9372ZM49.9201 208.435V211.555H36.9121V194.755H49.6081V197.875H40.7761V201.523H48.5761V204.547H40.7761V208.435H49.9201ZM59.8105 194.755H67.4425C69.2665 194.755 70.8745 195.107 72.2665 195.811C73.6745 196.499 74.7625 197.475 75.5305 198.739C76.3145 200.003 76.7065 201.475 76.7065 203.155C76.7065 204.835 76.3145 206.307 75.5305 207.571C74.7625 208.835 73.6745 209.819 72.2665 210.523C70.8745 211.211 69.2665 211.555 67.4425 211.555H59.8105V194.755ZM67.2505 208.363C68.9305 208.363 70.2665 207.899 71.2585 206.971C72.2665 206.027 72.7705 204.755 72.7705 203.155C72.7705 201.555 72.2665 200.291 71.2585 199.363C70.2665 198.419 68.9305 197.947 67.2505 197.947H63.6985V208.363H67.2505ZM87.7746 211.843C86.0306 211.843 84.4546 211.467 83.0466 210.715C81.6546 209.963 80.5586 208.931 79.7586 207.619C78.9746 206.291 78.5826 204.803 78.5826 203.155C78.5826 201.507 78.9746 200.027 79.7586 198.715C80.5586 197.387 81.6546 196.347 83.0466 195.595C84.4546 194.843 86.0306 194.467 87.7746 194.467C89.5186 194.467 91.0866 194.843 92.4786 195.595C93.8706 196.347 94.9666 197.387 95.7666 198.715C96.5666 200.027 96.9666 201.507 96.9666 203.155C96.9666 204.803 96.5666 206.291 95.7666 207.619C94.9666 208.931 93.8706 209.963 92.4786 210.715C91.0866 211.467 89.5186 211.843 87.7746 211.843ZM87.7746 208.531C88.7666 208.531 89.6626 208.307 90.4626 207.859C91.2626 207.395 91.8866 206.755 92.3346 205.939C92.7986 205.123 93.0306 204.195 93.0306 203.155C93.0306 202.115 92.7986 201.187 92.3346 200.371C91.8866 199.555 91.2626 198.923 90.4626 198.475C89.6626 198.011 88.7666 197.779 87.7746 197.779C86.7826 197.779 85.8866 198.011 85.0866 198.475C84.2866 198.923 83.6546 199.555 83.1906 200.371C82.7426 201.187 82.5186 202.115 82.5186 203.155C82.5186 204.195 82.7426 205.123 83.1906 205.939C83.6546 206.755 84.2866 207.395 85.0866 207.859C85.8866 208.307 86.7826 208.531 87.7746 208.531ZM115.177 211.555L115.153 201.475L110.209 209.779H108.457L103.537 201.691V211.555H99.8886V194.755H103.105L109.393 205.195L115.585 194.755H118.777L118.825 211.555H115.177ZM123.986 207.091C124.658 207.091 125.21 207.307 125.642 207.739C126.074 208.155 126.29 208.707 126.29 209.395C126.29 209.715 126.25 210.035 126.17 210.355C126.09 210.675 125.914 211.155 125.642 211.795L124.274 215.251H121.898L122.954 211.435C122.554 211.275 122.234 211.019 121.994 210.667C121.77 210.299 121.658 209.875 121.658 209.395C121.658 208.707 121.874 208.155 122.306 207.739C122.754 207.307 123.314 207.091 123.986 207.091ZM138.985 211.843C137.849 211.843 136.801 211.635 135.841 211.219C134.897 210.787 134.121 210.179 133.513 209.395L135.673 206.803C136.585 208.035 137.625 208.651 138.793 208.651C140.377 208.651 141.169 207.723 141.169 205.867V197.875H135.265V194.755H145.033V205.651C145.033 207.715 144.521 209.267 143.497 210.307C142.473 211.331 140.969 211.843 138.985 211.843ZM159.585 207.955H151.785L150.297 211.555H146.313L153.801 194.755H157.641L165.153 211.555H161.073L159.585 207.955ZM158.361 205.003L155.697 198.571L153.033 205.003H158.361ZM182.134 194.755L174.862 211.555H171.022L163.774 194.755H167.974L173.086 206.755L178.27 194.755H182.134ZM194.039 207.955H186.239L184.751 211.555H180.767L188.255 194.755H192.095L199.607 211.555H195.527L194.039 207.955ZM192.815 205.003L190.151 198.571L187.487 205.003H192.815ZM206.87 211.843C205.542 211.843 204.254 211.667 203.006 211.315C201.774 210.947 200.782 210.475 200.03 209.899L201.35 206.971C202.07 207.499 202.926 207.923 203.918 208.243C204.91 208.563 205.902 208.723 206.894 208.723C207.998 208.723 208.814 208.563 209.342 208.243C209.87 207.907 210.134 207.467 210.134 206.923C210.134 206.523 209.974 206.195 209.654 205.939C209.35 205.667 208.95 205.451 208.454 205.291C207.974 205.131 207.318 204.955 206.486 204.763C205.206 204.459 204.158 204.155 203.342 203.851C202.526 203.547 201.822 203.059 201.23 202.387C200.654 201.715 200.366 200.819 200.366 199.699C200.366 198.723 200.63 197.843 201.158 197.059C201.686 196.259 202.478 195.627 203.534 195.163C204.606 194.699 205.91 194.467 207.446 194.467C208.518 194.467 209.566 194.595 210.59 194.851C211.614 195.107 212.51 195.475 213.278 195.955L212.078 198.907C210.526 198.027 208.974 197.587 207.422 197.587C206.334 197.587 205.526 197.763 204.998 198.115C204.486 198.467 204.23 198.931 204.23 199.507C204.23 200.083 204.526 200.515 205.118 200.803C205.726 201.075 206.646 201.347 207.878 201.619C209.158 201.923 210.206 202.227 211.022 202.531C211.838 202.835 212.534 203.315 213.11 203.971C213.702 204.627 213.998 205.515 213.998 206.635C213.998 207.595 213.726 208.475 213.182 209.275C212.654 210.059 211.854 210.683 210.782 211.147C209.71 211.611 208.406 211.843 206.87 211.843ZM224.694 211.843C222.982 211.843 221.43 211.475 220.038 210.739C218.662 209.987 217.574 208.955 216.774 207.643C215.99 206.315 215.598 204.819 215.598 203.155C215.598 201.491 215.99 200.003 216.774 198.691C217.574 197.363 218.662 196.331 220.038 195.595C221.43 194.843 222.99 194.467 224.718 194.467C226.174 194.467 227.486 194.723 228.654 195.235C229.838 195.747 230.83 196.483 231.63 197.443L229.134 199.747C227.998 198.435 226.59 197.779 224.91 197.779C223.87 197.779 222.942 198.011 222.126 198.475C221.31 198.923 220.67 199.555 220.206 200.371C219.758 201.187 219.534 202.115 219.534 203.155C219.534 204.195 219.758 205.123 220.206 205.939C220.67 206.755 221.31 207.395 222.126 207.859C222.942 208.307 223.87 208.531 224.91 208.531C226.59 208.531 227.998 207.867 229.134 206.539L231.63 208.843C230.83 209.819 229.838 210.563 228.654 211.075C227.47 211.587 226.15 211.843 224.694 211.843ZM244.96 211.555L241.72 206.875H241.528H238.144V211.555H234.256V194.755H241.528C243.016 194.755 244.304 195.003 245.392 195.499C246.496 195.995 247.344 196.699 247.936 197.611C248.528 198.523 248.824 199.603 248.824 200.851C248.824 202.099 248.52 203.179 247.912 204.091C247.32 204.987 246.472 205.675 245.368 206.155L249.136 211.555H244.96ZM244.888 200.851C244.888 199.907 244.584 199.187 243.976 198.691C243.368 198.179 242.48 197.923 241.312 197.923H238.144V203.779H241.312C242.48 203.779 243.368 203.523 243.976 203.011C244.584 202.499 244.888 201.779 244.888 200.851ZM251.904 194.755H255.792V211.555H251.904V194.755ZM267.051 194.755C268.539 194.755 269.827 195.003 270.915 195.499C272.019 195.995 272.867 196.699 273.459 197.611C274.051 198.523 274.347 199.603 274.347 200.851C274.347 202.083 274.051 203.163 273.459 204.091C272.867 205.003 272.019 205.707 270.915 206.203C269.827 206.683 268.539 206.923 267.051 206.923H263.667V211.555H259.779V194.755H267.051ZM266.835 203.755C268.003 203.755 268.891 203.507 269.499 203.011C270.107 202.499 270.411 201.779 270.411 200.851C270.411 199.907 270.107 199.187 269.499 198.691C268.891 198.179 268.003 197.923 266.835 197.923H263.667V203.755H266.835ZM280.134 197.923H274.758V194.755H289.398V197.923H284.022V211.555H280.134V197.923ZM309.351 207.955H301.551L300.063 211.555H296.079L303.567 194.755H307.407L314.919 211.555H310.839L309.351 207.955ZM308.127 205.003L305.463 198.571L302.799 205.003H308.127ZM332.07 194.755V211.555H328.878L320.502 201.355V211.555H316.662V194.755H319.878L328.23 204.955V194.755H332.07ZM336.045 194.755H343.677C345.501 194.755 347.109 195.107 348.501 195.811C349.909 196.499 350.997 197.475 351.765 198.739C352.549 200.003 352.941 201.475 352.941 203.155C352.941 204.835 352.549 206.307 351.765 207.571C350.997 208.835 349.909 209.819 348.501 210.523C347.109 211.211 345.501 211.555 343.677 211.555H336.045V194.755ZM343.485 208.363C345.165 208.363 346.501 207.899 347.493 206.971C348.501 206.027 349.005 204.755 349.005 203.155C349.005 201.555 348.501 200.291 347.493 199.363C346.501 198.419 345.165 197.947 343.485 197.947H339.933V208.363H343.485ZM370.71 211.843C368.998 211.843 367.446 211.475 366.054 210.739C364.678 209.987 363.59 208.955 362.79 207.643C362.006 206.315 361.614 204.819 361.614 203.155C361.614 201.491 362.006 200.003 362.79 198.691C363.59 197.363 364.678 196.331 366.054 195.595C367.446 194.843 369.006 194.467 370.734 194.467C372.19 194.467 373.502 194.723 374.67 195.235C375.854 195.747 376.846 196.483 377.646 197.443L375.15 199.747C374.014 198.435 372.606 197.779 370.926 197.779C369.886 197.779 368.958 198.011 368.142 198.475C367.326 198.923 366.686 199.555 366.222 200.371C365.774 201.187 365.55 202.115 365.55 203.155C365.55 204.195 365.774 205.123 366.222 205.939C366.686 206.755 367.326 207.395 368.142 207.859C368.958 208.307 369.886 208.531 370.926 208.531C372.606 208.531 374.014 207.867 375.15 206.539L377.646 208.843C376.846 209.819 375.854 210.563 374.67 211.075C373.486 211.587 372.166 211.843 370.71 211.843ZM388.056 211.843C386.312 211.843 384.736 211.467 383.328 210.715C381.936 209.963 380.84 208.931 380.04 207.619C379.256 206.291 378.864 204.803 378.864 203.155C378.864 201.507 379.256 200.027 380.04 198.715C380.84 197.387 381.936 196.347 383.328 195.595C384.736 194.843 386.312 194.467 388.056 194.467C389.8 194.467 391.368 194.843 392.76 195.595C394.152 196.347 395.248 197.387 396.048 198.715C396.848 200.027 397.248 201.507 397.248 203.155C397.248 204.803 396.848 206.291 396.048 207.619C395.248 208.931 394.152 209.963 392.76 210.715C391.368 211.467 389.8 211.843 388.056 211.843ZM388.056 208.531C389.048 208.531 389.944 208.307 390.744 207.859C391.544 207.395 392.168 206.755 392.616 205.939C393.08 205.123 393.312 204.195 393.312 203.155C393.312 202.115 393.08 201.187 392.616 200.371C392.168 199.555 391.544 198.923 390.744 198.475C389.944 198.011 389.048 197.779 388.056 197.779C387.064 197.779 386.168 198.011 385.368 198.475C384.568 198.923 383.936 199.555 383.472 200.371C383.024 201.187 382.8 202.115 382.8 203.155C382.8 204.195 383.024 205.123 383.472 205.939C383.936 206.755 384.568 207.395 385.368 207.859C386.168 208.307 387.064 208.531 388.056 208.531ZM400.17 194.755H404.058V208.387H412.482V211.555H400.17V194.755ZM422.509 211.843C420.765 211.843 419.189 211.467 417.781 210.715C416.389 209.963 415.293 208.931 414.493 207.619C413.709 206.291 413.317 204.803 413.317 203.155C413.317 201.507 413.709 200.027 414.493 198.715C415.293 197.387 416.389 196.347 417.781 195.595C419.189 194.843 420.765 194.467 422.509 194.467C424.253 194.467 425.821 194.843 427.213 195.595C428.605 196.347 429.701 197.387 430.501 198.715C431.301 200.027 431.701 201.507 431.701 203.155C431.701 204.803 431.301 206.291 430.501 207.619C429.701 208.931 428.605 209.963 427.213 210.715C425.821 211.467 424.253 211.843 422.509 211.843ZM422.509 208.531C423.501 208.531 424.397 208.307 425.197 207.859C425.997 207.395 426.621 206.755 427.069 205.939C427.533 205.123 427.765 204.195 427.765 203.155C427.765 202.115 427.533 201.187 427.069 200.371C426.621 199.555 425.997 198.923 425.197 198.475C424.397 198.011 423.501 197.779 422.509 197.779C421.517 197.779 420.621 198.011 419.821 198.475C419.021 198.923 418.389 199.555 417.925 200.371C417.477 201.187 417.253 202.115 417.253 203.155C417.253 204.195 417.477 205.123 417.925 205.939C418.389 206.755 419.021 207.395 419.821 207.859C420.621 208.307 421.517 208.531 422.509 208.531ZM445.327 211.555L442.087 206.875H441.895H438.511V211.555H434.623V194.755H441.895C443.383 194.755 444.671 195.003 445.759 195.499C446.863 195.995 447.711 196.699 448.303 197.611C448.895 198.523 449.191 199.603 449.191 200.851C449.191 202.099 448.887 203.179 448.279 204.091C447.687 204.987 446.839 205.675 445.735 206.155L449.503 211.555H445.327ZM445.255 200.851C445.255 199.907 444.951 199.187 444.343 198.691C443.735 198.179 442.847 197.923 441.679 197.923H438.511V203.779H441.679C442.847 203.779 443.735 203.523 444.343 203.011C444.951 202.499 445.255 201.779 445.255 200.851Z" fill="white"/>
<path d="M143.234 73.7953C138.098 73.7953 133.442 72.6913 129.266 70.4833C125.138 68.2273 121.874 65.1313 119.474 61.1953C117.122 57.2113 115.946 52.7233 115.946 47.7313C115.946 42.7393 117.122 38.2753 119.474 34.3393C121.874 30.3553 125.138 27.2593 129.266 25.0513C133.442 22.7953 138.122 21.6673 143.306 21.6673C147.674 21.6673 151.61 22.4353 155.114 23.9713C158.666 25.5073 161.642 27.7153 164.042 30.5953L156.554 37.5073C153.146 33.5713 148.922 31.6033 143.882 31.6033C140.762 31.6033 137.978 32.2993 135.53 33.6913C133.082 35.0353 131.162 36.9313 129.77 39.3793C128.426 41.8273 127.754 44.6113 127.754 47.7313C127.754 50.8513 128.426 53.6353 129.77 56.0833C131.162 58.5313 133.082 60.4513 135.53 61.8433C137.978 63.1873 140.762 63.8593 143.882 63.8593C148.922 63.8593 153.146 61.8673 156.554 57.8833L164.042 64.7953C161.642 67.7233 158.666 69.9553 155.114 71.4913C151.562 73.0273 147.602 73.7953 143.234 73.7953ZM188.223 73.5073C184.143 73.5073 180.471 72.6673 177.207 70.9873C173.991 69.2593 171.471 66.8833 169.647 63.8593C167.823 60.8353 166.911 57.4033 166.911 53.5633C166.911 49.7233 167.823 46.2913 169.647 43.2673C171.471 40.2433 173.991 37.8913 177.207 36.2113C180.471 34.4833 184.143 33.6193 188.223 33.6193C192.303 33.6193 195.951 34.4833 199.167 36.2113C202.383 37.8913 204.903 40.2433 206.727 43.2673C208.551 46.2913 209.463 49.7233 209.463 53.5633C209.463 57.4033 208.551 60.8353 206.727 63.8593C204.903 66.8833 202.383 69.2593 199.167 70.9873C195.951 72.6673 192.303 73.5073 188.223 73.5073ZM188.223 64.2913C191.103 64.2913 193.455 63.3313 195.279 61.4113C197.151 59.4433 198.087 56.8273 198.087 53.5633C198.087 50.2993 197.151 47.7073 195.279 45.7873C193.455 43.8193 191.103 42.8353 188.223 42.8353C185.343 42.8353 182.967 43.8193 181.095 45.7873C179.223 47.7073 178.287 50.2993 178.287 53.5633C178.287 56.8273 179.223 59.4433 181.095 61.4113C182.967 63.3313 185.343 64.2913 188.223 64.2913ZM216.971 19.5073H228.203V72.9313H216.971V19.5073ZM257.059 73.5073C252.979 73.5073 249.307 72.6673 246.043 70.9873C242.827 69.2593 240.307 66.8833 238.483 63.8593C236.659 60.8353 235.747 57.4033 235.747 53.5633C235.747 49.7233 236.659 46.2913 238.483 43.2673C240.307 40.2433 242.827 37.8913 246.043 36.2113C249.307 34.4833 252.979 33.6193 257.059 33.6193C261.139 33.6193 264.787 34.4833 268.003 36.2113C271.219 37.8913 273.739 40.2433 275.563 43.2673C277.387 46.2913 278.299 49.7233 278.299 53.5633C278.299 57.4033 277.387 60.8353 275.563 63.8593C273.739 66.8833 271.219 69.2593 268.003 70.9873C264.787 72.6673 261.139 73.5073 257.059 73.5073ZM257.059 64.2913C259.939 64.2913 262.291 63.3313 264.115 61.4113C265.987 59.4433 266.923 56.8273 266.923 53.5633C266.923 50.2993 265.987 47.7073 264.115 45.7873C262.291 43.8193 259.939 42.8353 257.059 42.8353C254.179 42.8353 251.803 43.8193 249.931 45.7873C248.059 47.7073 247.123 50.2993 247.123 53.5633C247.123 56.8273 248.059 59.4433 249.931 61.4113C251.803 63.3313 254.179 64.2913 257.059 64.2913ZM296.534 39.3073C297.878 37.4353 299.678 36.0193 301.934 35.0593C304.238 34.0993 306.878 33.6193 309.854 33.6193V43.9873C308.606 43.8913 307.766 43.8433 307.334 43.8433C304.118 43.8433 301.598 44.7553 299.774 46.5793C297.95 48.3553 297.038 51.0433 297.038 54.6433V72.9313H285.806V34.1953H296.534V39.3073ZM118.168 133.795C113.032 133.795 108.376 132.691 104.2 130.483C100.072 128.227 96.8077 125.131 94.4077 121.195C92.0557 117.211 90.8797 112.723 90.8797 107.731C90.8797 102.739 92.0557 98.2753 94.4077 94.3393C96.8077 90.3553 100.072 87.2593 104.2 85.0513C108.376 82.7953 113.056 81.6673 118.24 81.6673C122.608 81.6673 126.544 82.4353 130.048 83.9713C133.6 85.5073 136.576 87.7153 138.976 90.5953L131.488 97.5073C128.08 93.5713 123.856 91.6033 118.816 91.6033C115.696 91.6033 112.912 92.2993 110.464 93.6913C108.016 95.0353 106.096 96.9313 104.704 99.3793C103.36 101.827 102.688 104.611 102.688 107.731C102.688 110.851 103.36 113.635 104.704 116.083C106.096 118.531 108.016 120.451 110.464 121.843C112.912 123.187 115.696 123.859 118.816 123.859C123.856 123.859 128.08 121.867 131.488 117.883L138.976 124.795C136.576 127.723 133.6 129.955 130.048 131.491C126.496 133.027 122.536 133.795 118.168 133.795ZM169.604 93.6193C174.404 93.6193 178.268 95.0593 181.196 97.9393C184.172 100.819 185.66 105.091 185.66 110.755V132.931H174.428V112.483C174.428 109.411 173.756 107.131 172.412 105.643C171.068 104.107 169.124 103.339 166.58 103.339C163.748 103.339 161.492 104.227 159.812 106.003C158.132 107.731 157.292 110.323 157.292 113.779V132.931H146.06V79.5073H157.292V98.2273C158.78 96.7393 160.58 95.6113 162.692 94.8433C164.804 94.0273 167.108 93.6193 169.604 93.6193ZM211.466 93.6193C217.466 93.6193 222.074 95.0593 225.29 97.9393C228.506 100.771 230.114 105.067 230.114 110.827V132.931H219.602V128.107C217.49 131.707 213.554 133.507 207.794 133.507C204.818 133.507 202.226 133.003 200.018 131.995C197.858 130.987 196.202 129.595 195.05 127.819C193.898 126.043 193.322 124.027 193.322 121.771C193.322 118.171 194.666 115.339 197.354 113.275C200.09 111.211 204.29 110.179 209.954 110.179H218.882C218.882 107.731 218.138 105.859 216.65 104.563C215.162 103.219 212.93 102.547 209.954 102.547C207.89 102.547 205.85 102.883 203.834 103.555C201.866 104.179 200.186 105.043 198.794 106.147L194.762 98.2993C196.874 96.8113 199.394 95.6593 202.322 94.8433C205.298 94.0273 208.346 93.6193 211.466 93.6193ZM210.602 125.947C212.522 125.947 214.226 125.515 215.714 124.651C217.202 123.739 218.258 122.419 218.882 120.691V116.731H211.178C206.57 116.731 204.266 118.243 204.266 121.267C204.266 122.707 204.818 123.859 205.922 124.723C207.074 125.539 208.634 125.947 210.602 125.947ZM251.007 99.3073C252.351 97.4353 254.151 96.0193 256.407 95.0593C258.711 94.0993 261.351 93.6193 264.327 93.6193V103.987C263.079 103.891 262.239 103.843 261.807 103.843C258.591 103.843 256.071 104.755 254.247 106.579C252.423 108.355 251.511 111.043 251.511 114.643V132.931H240.279V94.1953H251.007V99.3073ZM297.326 131.059C296.222 131.875 294.854 132.499 293.222 132.931C291.638 133.315 289.958 133.507 288.182 133.507C283.574 133.507 279.998 132.331 277.454 129.979C274.958 127.627 273.71 124.171 273.71 119.611V103.699H267.734V95.0593H273.71V85.6273H284.942V95.0593H294.59V103.699H284.942V119.467C284.942 121.099 285.35 122.371 286.166 123.283C287.03 124.147 288.23 124.579 289.766 124.579C291.542 124.579 293.054 124.099 294.302 123.139L297.326 131.059ZM316.663 133.507C313.447 133.507 310.303 133.123 307.231 132.355C304.159 131.539 301.711 130.531 299.887 129.331L303.631 121.267C305.359 122.371 307.447 123.283 309.895 124.003C312.343 124.675 314.743 125.011 317.095 125.011C321.847 125.011 324.223 123.835 324.223 121.483C324.223 120.379 323.575 119.587 322.279 119.107C320.983 118.627 318.991 118.219 316.303 117.883C313.135 117.403 310.519 116.851 308.455 116.227C306.391 115.603 304.591 114.499 303.055 112.915C301.567 111.331 300.823 109.075 300.823 106.147C300.823 103.699 301.519 101.539 302.911 99.6673C304.351 97.7473 306.415 96.2593 309.103 95.2033C311.839 94.1473 315.055 93.6193 318.751 93.6193C321.487 93.6193 324.199 93.9313 326.887 94.5553C329.623 95.1313 331.879 95.9473 333.655 97.0033L329.911 104.995C326.503 103.075 322.783 102.115 318.751 102.115C316.351 102.115 314.551 102.451 313.351 103.123C312.151 103.795 311.551 104.659 311.551 105.715C311.551 106.915 312.199 107.755 313.495 108.235C314.791 108.715 316.855 109.171 319.687 109.603C322.855 110.131 325.447 110.707 327.463 111.331C329.479 111.907 331.231 112.987 332.719 114.571C334.207 116.155 334.951 118.363 334.951 121.195C334.951 123.595 334.231 125.731 332.791 127.603C331.351 129.475 329.239 130.939 326.455 131.995C323.719 133.003 320.455 133.507 316.663 133.507Z" fill="url(#paint0_linear)"/>
<path d="M129.266 70.4833L128.786 71.3609L128.799 71.3673L129.266 70.4833ZM119.474 61.1953L118.613 61.7037L118.617 61.7098L118.62 61.7159L119.474 61.1953ZM119.474 34.3393L118.618 33.8233L118.616 33.8263L119.474 34.3393ZM129.266 25.0513L129.738 25.9331L129.741 25.9311L129.266 25.0513ZM155.114 23.9713L154.713 24.8872L154.717 24.8892L155.114 23.9713ZM164.042 30.5953L164.72 31.3301L165.419 30.6854L164.81 29.9551L164.042 30.5953ZM156.554 37.5073L155.798 38.1619L156.474 38.9423L157.232 38.2421L156.554 37.5073ZM135.53 33.6913L136.011 34.5679L136.018 34.5643L136.024 34.5606L135.53 33.6913ZM129.77 39.3793L128.901 38.885L128.897 38.8915L128.894 38.898L129.77 39.3793ZM129.77 56.0833L128.894 56.5646L128.897 56.5711L128.901 56.5776L129.77 56.0833ZM135.53 61.8433L135.036 62.7126L135.042 62.7163L135.049 62.7199L135.53 61.8433ZM156.554 57.8833L157.232 57.1485L156.469 56.4441L155.794 57.2333L156.554 57.8833ZM164.042 64.7953L164.816 65.4292L165.413 64.7L164.72 64.0605L164.042 64.7953ZM155.114 71.4913L154.717 70.5734L155.114 71.4913ZM143.234 72.7953C138.246 72.7953 133.753 71.7246 129.734 69.5993L128.799 71.3673C133.131 73.658 137.95 74.7953 143.234 74.7953V72.7953ZM129.746 69.6058C125.768 67.4321 122.635 64.4578 120.328 60.6747L118.62 61.7159C121.114 65.8048 124.508 69.0225 128.787 71.3608L129.746 69.6058ZM120.335 60.6869C118.081 56.869 116.946 52.5591 116.946 47.7313H114.946C114.946 52.8875 116.163 57.5536 118.613 61.7037L120.335 60.6869ZM116.946 47.7313C116.946 42.9034 118.081 38.6196 120.333 34.8523L118.616 33.8263C116.163 37.931 114.946 42.5752 114.946 47.7313H116.946ZM120.331 34.8553C122.637 31.0268 125.768 28.0567 129.738 25.9331L128.794 24.1695C124.509 26.4619 121.111 29.6838 118.618 33.8233L120.331 34.8553ZM129.741 25.9311C133.758 23.7611 138.272 22.6673 143.306 22.6673V20.6673C137.972 20.6673 133.126 21.8295 128.791 24.1715L129.741 25.9311ZM143.306 22.6673C147.555 22.6673 151.352 23.414 154.713 24.8872L155.516 23.0554C151.868 21.4566 147.793 20.6673 143.306 20.6673V22.6673ZM154.717 24.8892C158.13 26.365 160.977 28.4798 163.274 31.2355L164.81 29.9551C162.307 26.9508 159.202 24.6496 155.511 23.0534L154.717 24.8892ZM163.364 29.8605L155.876 36.7725L157.232 38.2421L164.72 31.3301L163.364 29.8605ZM157.31 36.8527C153.719 32.7056 149.223 30.6033 143.882 30.6033V32.6033C148.621 32.6033 152.573 34.437 155.798 38.1619L157.31 36.8527ZM143.882 30.6033C140.608 30.6033 137.65 31.3354 135.036 32.822L136.024 34.5606C138.306 33.2633 140.916 32.6033 143.882 32.6033V30.6033ZM135.049 32.8147C132.437 34.2486 130.383 36.2776 128.901 38.885L130.639 39.8736C131.941 37.5851 133.727 35.822 136.011 34.5679L135.049 32.8147ZM128.894 38.898C127.459 41.5102 126.754 44.4631 126.754 47.7313H128.754C128.754 44.7595 129.393 42.1444 130.647 39.8606L128.894 38.898ZM126.754 47.7313C126.754 50.9995 127.459 53.9524 128.894 56.5646L130.647 55.602C129.393 53.3182 128.754 50.7031 128.754 47.7313H126.754ZM128.901 56.5776C130.382 59.1821 132.431 61.2316 135.036 62.7126L136.024 60.974C133.733 59.671 131.942 57.8805 130.639 55.589L128.901 56.5776ZM135.049 62.7199C137.661 64.154 140.614 64.8593 143.882 64.8593V62.8593C140.91 62.8593 138.295 62.2206 136.011 60.9667L135.049 62.7199ZM143.882 64.8593C149.228 64.8593 153.725 62.7292 157.314 58.5333L155.794 57.2333C152.567 61.0054 148.617 62.8593 143.882 62.8593V64.8593ZM155.876 58.6181L163.364 65.5301L164.72 64.0605L157.232 57.1485L155.876 58.6181ZM163.269 64.1614C160.972 66.9633 158.126 69.0993 154.717 70.5734L155.511 72.4092C159.206 70.8113 162.312 68.4833 164.816 65.4292L163.269 64.1614ZM154.717 70.5734C151.306 72.0487 147.483 72.7953 143.234 72.7953V74.7953C147.721 74.7953 151.819 74.0059 155.511 72.4092L154.717 70.5734ZM177.207 70.9873L176.734 71.8682L176.741 71.8724L176.749 71.8764L177.207 70.9873ZM169.647 63.8593L168.791 64.3758L168.791 64.3758L169.647 63.8593ZM169.647 43.2673L168.791 42.7508L168.791 42.7508L169.647 43.2673ZM177.207 36.2113L177.67 37.0977L177.675 37.0951L177.207 36.2113ZM199.167 36.2113L198.694 37.0923L198.704 37.0977L199.167 36.2113ZM206.727 43.2673L207.583 42.7508L207.583 42.7508L206.727 43.2673ZM206.727 63.8593L207.583 64.3758L207.583 64.3758L206.727 63.8593ZM199.167 70.9873L199.63 71.8737L199.64 71.8682L199.167 70.9873ZM195.279 61.4113L194.554 60.7221L194.554 60.7226L195.279 61.4113ZM195.279 45.7873L194.545 46.4671L194.554 46.4763L194.563 46.4854L195.279 45.7873ZM181.095 45.7873L181.811 46.4855L181.819 46.4765L181.095 45.7873ZM181.095 61.4113L180.37 62.1006L180.379 62.1094L181.095 61.4113ZM188.223 72.5073C184.284 72.5073 180.772 71.6975 177.665 70.0982L176.749 71.8764C180.17 73.6371 184.002 74.5073 188.223 74.5073V72.5073ZM177.68 70.1064C174.617 68.4603 172.231 66.2078 170.503 63.3428L168.791 64.3758C170.71 67.5588 173.365 70.0583 176.734 71.8682L177.68 70.1064ZM170.503 63.3428C168.781 60.4882 167.911 57.2377 167.911 53.5633H165.911C165.911 57.5689 166.864 61.1824 168.791 64.3758L170.503 63.3428ZM167.911 53.5633C167.911 49.8889 168.781 46.6384 170.503 43.7838L168.791 42.7508C166.864 45.9442 165.911 49.5577 165.911 53.5633H167.911ZM170.503 43.7838C172.23 40.9213 174.612 38.6952 177.67 37.0977L176.744 35.325C173.37 37.0874 170.712 39.5653 168.791 42.7508L170.503 43.7838ZM177.675 37.0951C180.78 35.4512 184.289 34.6193 188.223 34.6193V32.6193C183.997 32.6193 180.162 33.5155 176.739 35.3275L177.675 37.0951ZM188.223 34.6193C192.157 34.6193 195.64 35.4512 198.694 37.0922L199.64 35.3304C196.262 33.5154 192.448 32.6193 188.223 32.6193V34.6193ZM198.704 37.0977C201.762 38.6952 204.144 40.9213 205.871 43.7838L207.583 42.7508C205.662 39.5653 203.004 37.0874 199.63 35.325L198.704 37.0977ZM205.871 43.7838C207.592 46.6384 208.463 49.8889 208.463 53.5633H210.463C210.463 49.5577 209.509 45.9442 207.583 42.7508L205.871 43.7838ZM208.463 53.5633C208.463 57.2377 207.592 60.4882 205.871 63.3428L207.583 64.3758C209.509 61.1824 210.463 57.5689 210.463 53.5633H208.463ZM205.871 63.3428C204.142 66.2078 201.757 68.4603 198.694 70.1064L199.64 71.8682C203.009 70.0583 205.663 67.5588 207.583 64.3758L205.871 63.3428ZM198.704 70.101C195.648 71.6974 192.162 72.5073 188.223 72.5073V74.5073C192.444 74.5073 196.254 73.6372 199.63 71.8737L198.704 70.101ZM188.223 65.2913C191.35 65.2913 193.973 64.2373 196.004 62.1001L194.554 60.7226C192.936 62.4253 190.855 63.2913 188.223 63.2913V65.2913ZM196.003 62.1005C198.087 59.9103 199.087 57.0289 199.087 53.5633H197.087C197.087 56.6257 196.215 58.9763 194.554 60.7221L196.003 62.1005ZM199.087 53.5633C199.087 50.0986 198.087 47.235 195.995 45.0892L194.563 46.4854C196.215 48.1796 197.087 50.5 197.087 53.5633H199.087ZM196.012 45.1075C193.984 42.9192 191.358 41.8353 188.223 41.8353V43.8353C190.847 43.8353 192.926 44.7194 194.545 46.4671L196.012 45.1075ZM188.223 41.8353C185.087 41.8353 182.443 42.9186 180.37 45.0981L181.819 46.4765C183.49 44.72 185.598 43.8353 188.223 43.8353V41.8353ZM180.379 45.0892C178.287 47.235 177.287 50.0986 177.287 53.5633H179.287C179.287 50.5 180.159 48.1796 181.811 46.4854L180.379 45.0892ZM177.287 53.5633C177.287 57.0289 178.287 59.9103 180.37 62.1005L181.819 60.7221C180.159 58.9763 179.287 56.6257 179.287 53.5633H177.287ZM180.379 62.1094C182.454 64.2377 185.095 65.2913 188.223 65.2913V63.2913C185.59 63.2913 183.48 62.4249 181.811 60.7132L180.379 62.1094ZM216.971 19.5073V18.5073H215.971V19.5073H216.971ZM228.203 19.5073H229.203V18.5073H228.203V19.5073ZM228.203 72.9313V73.9313H229.203V72.9313H228.203ZM216.971 72.9313H215.971V73.9313H216.971V72.9313ZM216.971 20.5073H228.203V18.5073H216.971V20.5073ZM227.203 19.5073V72.9313H229.203V19.5073H227.203ZM228.203 71.9313H216.971V73.9313H228.203V71.9313ZM217.971 72.9313V19.5073H215.971V72.9313H217.971ZM246.043 70.9873L245.569 71.8682L245.577 71.8724L245.585 71.8764L246.043 70.9873ZM238.483 63.8593L237.627 64.3758L237.627 64.3758L238.483 63.8593ZM238.483 43.2673L237.627 42.7508L237.627 42.7508L238.483 43.2673ZM246.043 36.2113L246.506 37.0977L246.511 37.0951L246.043 36.2113ZM268.003 36.2113L267.529 37.0923L267.54 37.0977L268.003 36.2113ZM275.563 43.2673L276.419 42.7508L276.419 42.7508L275.563 43.2673ZM275.563 63.8593L276.419 64.3758L276.419 64.3758L275.563 63.8593ZM268.003 70.9873L268.466 71.8737L268.476 71.8682L268.003 70.9873ZM264.115 61.4113L263.39 60.7221L263.39 60.7226L264.115 61.4113ZM264.115 45.7873L263.381 46.4671L263.39 46.4763L263.399 46.4854L264.115 45.7873ZM249.931 45.7873L250.647 46.4855L250.655 46.4765L249.931 45.7873ZM249.931 61.4113L249.206 62.1006L249.215 62.1094L249.931 61.4113ZM257.059 72.5073C253.12 72.5073 249.608 71.6975 246.5 70.0982L245.585 71.8764C249.006 73.6371 252.838 74.5073 257.059 74.5073V72.5073ZM246.516 70.1064C243.453 68.4603 241.067 66.2078 239.339 63.3428L237.627 64.3758C239.546 67.5588 242.201 70.0583 245.569 71.8682L246.516 70.1064ZM239.339 63.3428C237.617 60.4882 236.747 57.2377 236.747 53.5633H234.747C234.747 57.5689 235.7 61.1824 237.627 64.3758L239.339 63.3428ZM236.747 53.5633C236.747 49.8889 237.617 46.6384 239.339 43.7838L237.627 42.7508C235.7 45.9442 234.747 49.5577 234.747 53.5633H236.747ZM239.339 43.7838C241.066 40.9213 243.448 38.6952 246.506 37.0977L245.58 35.325C242.206 37.0874 239.548 39.5653 237.627 42.7508L239.339 43.7838ZM246.511 37.0951C249.616 35.4512 253.125 34.6193 257.059 34.6193V32.6193C252.833 32.6193 248.998 33.5155 245.575 35.3275L246.511 37.0951ZM257.059 34.6193C260.993 34.6193 264.475 35.4512 267.529 37.0922L268.476 35.3304C265.098 33.5154 261.284 32.6193 257.059 32.6193V34.6193ZM267.54 37.0977C270.598 38.6952 272.98 40.9213 274.707 43.7838L276.419 42.7508C274.498 39.5653 271.84 37.0874 268.466 35.325L267.54 37.0977ZM274.707 43.7838C276.428 46.6384 277.299 49.8889 277.299 53.5633H279.299C279.299 49.5577 278.345 45.9442 276.419 42.7508L274.707 43.7838ZM277.299 53.5633C277.299 57.2377 276.428 60.4882 274.707 63.3428L276.419 64.3758C278.345 61.1824 279.299 57.5689 279.299 53.5633H277.299ZM274.707 63.3428C272.978 66.2078 270.593 68.4603 267.529 70.1064L268.476 71.8682C271.845 70.0583 274.499 67.5588 276.419 64.3758L274.707 63.3428ZM267.54 70.101C264.484 71.6974 260.998 72.5073 257.059 72.5073V74.5073C261.28 74.5073 265.09 73.6372 268.466 71.8737L267.54 70.101ZM257.059 65.2913C260.186 65.2913 262.809 64.2373 264.84 62.1001L263.39 60.7226C261.772 62.4253 259.691 63.2913 257.059 63.2913V65.2913ZM264.839 62.1005C266.923 59.9103 267.923 57.0289 267.923 53.5633H265.923C265.923 56.6257 265.051 58.9763 263.39 60.7221L264.839 62.1005ZM267.923 53.5633C267.923 50.0986 266.923 47.235 264.831 45.0892L263.399 46.4854C265.051 48.1796 265.923 50.5 265.923 53.5633H267.923ZM264.848 45.1075C262.82 42.9192 260.194 41.8353 257.059 41.8353V43.8353C259.683 43.8353 261.762 44.7194 263.381 46.4671L264.848 45.1075ZM257.059 41.8353C253.923 41.8353 251.279 42.9186 249.206 45.0981L250.655 46.4765C252.326 44.72 254.434 43.8353 257.059 43.8353V41.8353ZM249.215 45.0892C247.123 47.235 246.123 50.0986 246.123 53.5633H248.123C248.123 50.5 248.995 48.1796 250.647 46.4854L249.215 45.0892ZM246.123 53.5633C246.123 57.0289 247.123 59.9103 249.206 62.1005L250.655 60.7221C248.995 58.9763 248.123 56.6257 248.123 53.5633H246.123ZM249.215 62.1094C251.29 64.2377 253.931 65.2913 257.059 65.2913V63.2913C254.426 63.2913 252.316 62.4249 250.647 60.7132L249.215 62.1094ZM296.534 39.3073H295.534V42.4148L297.347 39.8905L296.534 39.3073ZM301.934 35.0593L301.55 34.1362L301.543 34.1391L301.934 35.0593ZM309.854 33.6193H310.854V32.6193H309.854V33.6193ZM309.854 43.9873L309.778 44.9844L310.854 45.0672V43.9873H309.854ZM299.774 46.5793L300.472 47.2958L300.482 47.2864L299.774 46.5793ZM297.038 72.9313V73.9313H298.038V72.9313H297.038ZM285.806 72.9313H284.806V73.9313H285.806V72.9313ZM285.806 34.1953V33.1953H284.806V34.1953H285.806ZM296.534 34.1953H297.534V33.1953H296.534V34.1953ZM297.347 39.8905C298.577 38.1768 300.227 36.8725 302.326 35.9795L301.543 34.1391C299.13 35.1661 297.18 36.6938 295.722 38.7241L297.347 39.8905ZM302.319 35.9824C304.48 35.0819 306.986 34.6193 309.854 34.6193V32.6193C306.771 32.6193 303.997 33.1167 301.55 34.1362L302.319 35.9824ZM308.854 33.6193V43.9873H310.854V33.6193H308.854ZM309.931 42.9902C308.689 42.8947 307.811 42.8433 307.334 42.8433V44.8433C307.722 44.8433 308.524 44.8879 309.778 44.9844L309.931 42.9902ZM307.334 42.8433C303.922 42.8433 301.123 43.8168 299.067 45.8722L300.482 47.2864C302.074 45.6938 304.315 44.8433 307.334 44.8433V42.8433ZM299.077 45.8628C296.991 47.8937 296.038 50.8869 296.038 54.6433H298.038C298.038 51.1997 298.91 48.8169 300.472 47.2958L299.077 45.8628ZM296.038 54.6433V72.9313H298.038V54.6433H296.038ZM297.038 71.9313H285.806V73.9313H297.038V71.9313ZM286.806 72.9313V34.1953H284.806V72.9313H286.806ZM285.806 35.1953H296.534V33.1953H285.806V35.1953ZM295.534 34.1953V39.3073H297.534V34.1953H295.534ZM104.2 130.483L103.72 131.361L103.732 131.367L104.2 130.483ZM94.4077 121.195L93.5466 121.704L93.5502 121.71L93.5539 121.716L94.4077 121.195ZM94.4077 94.3393L93.5511 93.8233L93.5493 93.8263L94.4077 94.3393ZM104.2 85.0513L104.671 85.9331L104.675 85.9311L104.2 85.0513ZM130.048 83.9713L129.646 84.8872L129.651 84.8892L130.048 83.9713ZM138.976 90.5953L139.654 91.3301L140.352 90.6854L139.744 89.9551L138.976 90.5953ZM131.488 97.5073L130.732 98.1619L131.407 98.9423L132.166 98.2421L131.488 97.5073ZM110.464 93.6913L110.945 94.5679L110.952 94.5643L110.958 94.5606L110.464 93.6913ZM104.704 99.3793L103.834 98.885L103.831 98.8915L103.827 98.898L104.704 99.3793ZM104.704 116.083L103.827 116.565L103.831 116.571L103.834 116.578L104.704 116.083ZM110.464 121.843L109.969 122.713L109.976 122.716L109.982 122.72L110.464 121.843ZM131.488 117.883L132.166 117.149L131.403 116.444L130.728 117.233L131.488 117.883ZM138.976 124.795L139.749 125.429L140.347 124.7L139.654 124.061L138.976 124.795ZM130.048 131.491L129.651 130.573L130.048 131.491ZM118.168 132.795C113.18 132.795 108.687 131.725 104.667 129.599L103.732 131.367C108.065 133.658 112.883 134.795 118.168 134.795V132.795ZM104.679 129.606C100.702 127.432 97.5683 124.458 95.2615 120.675L93.5539 121.716C96.0471 125.805 99.4416 129.023 103.72 131.361L104.679 129.606ZM95.2688 120.687C93.0149 116.869 91.8797 112.559 91.8797 107.731H89.8797C89.8797 112.888 91.0965 117.554 93.5466 121.704L95.2688 120.687ZM91.8797 107.731C91.8797 102.903 93.0149 98.6196 95.2661 94.8523L93.5493 93.8263C91.0965 97.931 89.8797 102.575 89.8797 107.731H91.8797ZM95.2643 94.8553C97.5706 91.0268 100.701 88.0567 104.671 85.9331L103.728 84.1695C99.4422 86.4619 96.0448 89.6838 93.5511 93.8233L95.2643 94.8553ZM104.675 85.9311C108.692 83.7611 113.206 82.6673 118.24 82.6673V80.6673C112.905 80.6673 108.06 81.8295 103.724 84.1715L104.675 85.9311ZM118.24 82.6673C122.489 82.6673 126.286 83.414 129.646 84.8872L130.449 83.0554C126.802 81.4566 122.726 80.6673 118.24 80.6673V82.6673ZM129.651 84.8892C133.064 86.365 135.911 88.4798 138.207 91.2355L139.744 89.9551C137.24 86.9508 134.136 84.6496 130.445 83.0534L129.651 84.8892ZM138.297 89.8605L130.809 96.7725L132.166 98.2421L139.654 91.3301L138.297 89.8605ZM132.244 96.8527C128.653 92.7056 124.157 90.6033 118.816 90.6033V92.6033C123.555 92.6033 127.506 94.437 130.732 98.1619L132.244 96.8527ZM118.816 90.6033C115.542 90.6033 112.584 91.3354 109.969 92.822L110.958 94.5606C113.24 93.2633 115.85 92.6033 118.816 92.6033V90.6033ZM109.982 92.8147C107.371 94.2486 105.317 96.2776 103.834 98.885L105.573 99.8736C106.874 97.5851 108.661 95.822 110.945 94.5679L109.982 92.8147ZM103.827 98.898C102.393 101.51 101.688 104.463 101.688 107.731H103.688C103.688 104.759 104.326 102.144 105.58 99.8606L103.827 98.898ZM101.688 107.731C101.688 110.999 102.393 113.952 103.827 116.565L105.58 115.602C104.326 113.318 103.688 110.703 103.688 107.731H101.688ZM103.834 116.578C105.315 119.182 107.365 121.232 109.969 122.713L110.958 120.974C108.666 119.671 106.876 117.881 105.573 115.589L103.834 116.578ZM109.982 122.72C112.595 124.154 115.548 124.859 118.816 124.859V122.859C115.844 122.859 113.229 122.221 110.945 120.967L109.982 122.72ZM118.816 124.859C124.161 124.859 128.658 122.729 132.248 118.533L130.728 117.233C127.501 121.005 123.55 122.859 118.816 122.859V124.859ZM130.809 118.618L138.297 125.53L139.654 124.061L132.166 117.149L130.809 118.618ZM138.202 124.161C135.906 126.963 133.06 129.099 129.651 130.573L130.445 132.409C134.14 130.811 137.246 128.483 139.749 125.429L138.202 124.161ZM129.651 130.573C126.239 132.049 122.417 132.795 118.168 132.795V134.795C122.655 134.795 126.752 134.006 130.445 132.409L129.651 130.573ZM181.196 97.9393L180.495 98.6523L180.501 98.6579L181.196 97.9393ZM185.66 132.931V133.931H186.66V132.931H185.66ZM174.428 132.931H173.428V133.931H174.428V132.931ZM172.412 105.643L171.66 106.302L171.665 106.308L171.67 106.314L172.412 105.643ZM159.812 106.003L160.529 106.7L160.539 106.691L159.812 106.003ZM157.292 132.931V133.931H158.292V132.931H157.292ZM146.06 132.931H145.06V133.931H146.06V132.931ZM146.06 79.5073V78.5073H145.06V79.5073H146.06ZM157.292 79.5073H158.292V78.5073H157.292V79.5073ZM157.292 98.2273H156.292V100.642L157.999 98.9344L157.292 98.2273ZM162.692 94.8433L163.034 95.7831L163.043 95.7797L163.053 95.7761L162.692 94.8433ZM169.604 94.6193C174.19 94.6193 177.786 95.9871 180.495 98.6522L181.898 97.2264C178.751 94.1315 174.619 92.6193 169.604 92.6193V94.6193ZM180.501 98.6579C183.219 101.289 184.66 105.26 184.66 110.755H186.66C186.66 104.923 185.126 100.35 181.892 97.2207L180.501 98.6579ZM184.66 110.755V132.931H186.66V110.755H184.66ZM185.66 131.931H174.428V133.931H185.66V131.931ZM175.428 132.931V112.483H173.428V132.931H175.428ZM175.428 112.483C175.428 109.291 174.734 106.721 173.154 104.973L171.67 106.314C172.779 107.541 173.428 109.532 173.428 112.483H175.428ZM173.165 104.985C171.586 103.18 169.336 102.339 166.58 102.339V104.339C168.913 104.339 170.551 105.035 171.66 106.302L173.165 104.985ZM166.58 102.339C163.521 102.339 160.985 103.308 159.086 105.316L160.539 106.691C162 105.146 163.976 104.339 166.58 104.339V102.339ZM159.095 105.306C157.168 107.289 156.292 110.176 156.292 113.779H158.292C158.292 110.47 159.097 108.174 160.529 106.7L159.095 105.306ZM156.292 113.779V132.931H158.292V113.779H156.292ZM157.292 131.931H146.06V133.931H157.292V131.931ZM147.06 132.931V79.5073H145.06V132.931H147.06ZM146.06 80.5073H157.292V78.5073H146.06V80.5073ZM156.292 79.5073V98.2273H158.292V79.5073H156.292ZM157.999 98.9344C159.377 97.5567 161.05 96.5046 163.034 95.7831L162.351 93.9035C160.111 94.718 158.184 95.922 156.585 97.5202L157.999 98.9344ZM163.053 95.7761C165.039 95.0089 167.219 94.6193 169.604 94.6193V92.6193C166.998 92.6193 164.57 93.0458 162.332 93.9105L163.053 95.7761ZM225.29 97.9393L224.622 98.6843L224.629 98.6898L225.29 97.9393ZM230.114 132.931V133.931H231.114V132.931H230.114ZM219.602 132.931H218.602V133.931H219.602V132.931ZM219.602 128.107H220.602V124.427L218.739 127.601L219.602 128.107ZM200.018 131.995L199.595 132.902L199.602 132.905L200.018 131.995ZM195.05 127.819L195.889 127.275L195.889 127.275L195.05 127.819ZM197.354 113.275L196.751 112.477L196.745 112.482L197.354 113.275ZM218.882 110.179V111.179H219.882V110.179H218.882ZM216.65 104.563L215.979 105.305L215.986 105.311L215.993 105.317L216.65 104.563ZM203.834 103.555L204.136 104.509L204.143 104.506L204.15 104.504L203.834 103.555ZM198.794 106.147L197.904 106.604L198.461 107.688L199.415 106.931L198.794 106.147ZM194.762 98.2993L194.186 97.4818L193.475 97.9827L193.872 98.7563L194.762 98.2993ZM202.322 94.8433L202.057 93.8789L202.053 93.88L202.322 94.8433ZM215.714 124.651L216.216 125.516L216.226 125.51L216.236 125.504L215.714 124.651ZM218.882 120.691L219.822 121.031L219.882 120.866V120.691H218.882ZM218.882 116.731H219.882V115.731H218.882V116.731ZM205.922 124.723L205.305 125.511L205.324 125.526L205.344 125.539L205.922 124.723ZM211.466 94.6193C217.316 94.6193 221.651 96.0229 224.623 98.6843L225.957 97.1944C222.497 94.0957 217.616 92.6193 211.466 92.6193V94.6193ZM224.629 98.6898C227.562 101.273 229.114 105.251 229.114 110.827H231.114C231.114 104.884 229.449 100.27 225.951 97.1888L224.629 98.6898ZM229.114 110.827V132.931H231.114V110.827H229.114ZM230.114 131.931H219.602V133.931H230.114V131.931ZM220.602 132.931V128.107H218.602V132.931H220.602ZM218.739 127.601C216.872 130.784 213.35 132.507 207.794 132.507V134.507C213.757 134.507 218.107 132.63 220.464 128.613L218.739 127.601ZM207.794 132.507C204.929 132.507 202.485 132.022 200.433 131.086L199.602 132.905C201.967 133.984 204.706 134.507 207.794 134.507V132.507ZM200.441 131.089C198.428 130.15 196.926 128.875 195.889 127.275L194.211 128.363C195.477 130.316 197.287 131.824 199.595 132.901L200.441 131.089ZM195.889 127.275C194.849 125.672 194.322 123.847 194.322 121.771H192.322C192.322 124.207 192.947 126.415 194.211 128.363L195.889 127.275ZM194.322 121.771C194.322 118.46 195.538 115.93 197.963 114.068L196.745 112.482C193.793 114.749 192.322 117.883 192.322 121.771H194.322ZM197.956 114.074C200.438 112.202 204.377 111.179 209.954 111.179V109.179C204.202 109.179 199.742 110.221 196.751 112.477L197.956 114.074ZM209.954 111.179H218.882V109.179H209.954V111.179ZM219.882 110.179C219.882 107.517 219.064 105.34 217.306 103.809L215.993 105.317C217.212 106.379 217.882 107.945 217.882 110.179H219.882ZM217.32 103.821C215.577 102.247 213.06 101.547 209.954 101.547V103.547C212.799 103.547 214.747 104.192 215.979 105.305L217.32 103.821ZM209.954 101.547C207.779 101.547 205.632 101.902 203.517 102.607L204.15 104.504C206.067 103.865 208 103.547 209.954 103.547V101.547ZM203.531 102.602C201.466 103.257 199.674 104.173 198.172 105.364L199.415 106.931C200.698 105.913 202.265 105.102 204.136 104.509L203.531 102.602ZM199.683 105.69L195.651 97.8423L193.872 98.7563L197.904 106.604L199.683 105.69ZM195.338 99.1168C197.341 97.7051 199.753 96.5972 202.59 95.8066L202.053 93.88C199.034 94.7214 196.406 95.9175 194.186 97.4818L195.338 99.1168ZM202.586 95.8077C205.475 95.0156 208.434 94.6193 211.466 94.6193V92.6193C208.257 92.6193 205.12 93.039 202.057 93.8789L202.586 95.8077ZM210.602 126.947C212.677 126.947 214.558 126.479 216.216 125.516L215.212 123.787C213.893 124.552 212.366 124.947 210.602 124.947V126.947ZM216.236 125.504C217.928 124.467 219.125 122.96 219.822 121.031L217.941 120.352C217.39 121.878 216.475 123.012 215.191 123.799L216.236 125.504ZM219.882 120.691V116.731H217.882V120.691H219.882ZM218.882 115.731H211.178V117.731H218.882V115.731ZM211.178 115.731C208.796 115.731 206.836 116.116 205.445 117.029C203.98 117.99 203.266 119.457 203.266 121.267H205.266C205.266 120.053 205.703 119.252 206.542 118.701C207.455 118.102 208.951 117.731 211.178 117.731V115.731ZM203.266 121.267C203.266 123.005 203.952 124.451 205.305 125.511L206.538 123.936C205.684 123.267 205.266 122.41 205.266 121.267H203.266ZM205.344 125.539C206.719 126.514 208.506 126.947 210.602 126.947V124.947C208.761 124.947 207.428 124.565 206.5 123.907L205.344 125.539ZM251.007 99.3073H250.007V102.415L251.819 99.8905L251.007 99.3073ZM256.407 95.0593L256.023 94.1362L256.016 94.1391L256.407 95.0593ZM264.327 93.6193H265.327V92.6193H264.327V93.6193ZM264.327 103.987L264.25 104.984L265.327 105.067V103.987H264.327ZM254.247 106.579L254.945 107.296L254.954 107.286L254.247 106.579ZM251.511 132.931V133.931H252.511V132.931H251.511ZM240.279 132.931H239.279V133.931H240.279V132.931ZM240.279 94.1953V93.1953H239.279V94.1953H240.279ZM251.007 94.1953H252.007V93.1953H251.007V94.1953ZM251.819 99.8905C253.05 98.1768 254.7 96.8725 256.799 95.9795L256.016 94.1391C253.602 95.1661 251.652 96.6938 250.195 98.7241L251.819 99.8905ZM256.792 95.9824C258.953 95.0819 261.458 94.6193 264.327 94.6193V92.6193C261.244 92.6193 258.469 93.1167 256.023 94.1362L256.792 95.9824ZM263.327 93.6193V103.987H265.327V93.6193H263.327ZM264.404 102.99C263.161 102.895 262.284 102.843 261.807 102.843V104.843C262.195 104.843 262.997 104.888 264.25 104.984L264.404 102.99ZM261.807 102.843C258.395 102.843 255.595 103.817 253.54 105.872L254.954 107.286C256.547 105.694 258.787 104.843 261.807 104.843V102.843ZM253.55 105.863C251.464 107.894 250.511 110.887 250.511 114.643H252.511C252.511 111.2 253.383 108.817 254.945 107.296L253.55 105.863ZM250.511 114.643V132.931H252.511V114.643H250.511ZM251.511 131.931H240.279V133.931H251.511V131.931ZM241.279 132.931V94.1953H239.279V132.931H241.279ZM240.279 95.1953H251.007V93.1953H240.279V95.1953ZM250.007 94.1953V99.3073H252.007V94.1953H250.007ZM297.326 131.059L297.92 131.863L298.531 131.412L298.26 130.703L297.326 131.059ZM293.222 132.931L293.457 133.903L293.467 133.901L293.478 133.898L293.222 132.931ZM277.454 129.979L276.768 130.707L276.775 130.714L277.454 129.979ZM273.71 103.699H274.71V102.699H273.71V103.699ZM267.734 103.699H266.734V104.699H267.734V103.699ZM267.734 95.0593V94.0593H266.734V95.0593H267.734ZM273.71 95.0593V96.0593H274.71V95.0593H273.71ZM273.71 85.6273V84.6273H272.71V85.6273H273.71ZM284.942 85.6273H285.942V84.6273H284.942V85.6273ZM284.942 95.0593H283.942V96.0593H284.942V95.0593ZM294.59 95.0593H295.59V94.0593H294.59V95.0593ZM294.59 103.699V104.699H295.59V103.699H294.59ZM284.942 103.699V102.699H283.942V103.699H284.942ZM286.166 123.283L285.42 123.95L285.439 123.971L285.459 123.99L286.166 123.283ZM294.302 123.139L295.236 122.783L294.757 121.528L293.692 122.347L294.302 123.139ZM296.731 130.255C295.749 130.981 294.503 131.558 292.966 131.965L293.478 133.898C295.204 133.441 296.694 132.77 297.92 131.863L296.731 130.255ZM292.986 131.959C291.486 132.323 289.885 132.507 288.182 132.507V134.507C290.03 134.507 291.79 134.307 293.457 133.903L292.986 131.959ZM288.182 132.507C283.74 132.507 280.438 131.376 278.132 129.245L276.775 130.714C279.558 133.286 283.407 134.507 288.182 134.507V132.507ZM278.139 129.252C275.904 127.145 274.71 123.991 274.71 119.611H272.71C272.71 124.352 274.011 128.11 276.768 130.707L278.139 129.252ZM274.71 119.611V103.699H272.71V119.611H274.71ZM273.71 102.699H267.734V104.699H273.71V102.699ZM268.734 103.699V95.0593H266.734V103.699H268.734ZM267.734 96.0593H273.71V94.0593H267.734V96.0593ZM274.71 95.0593V85.6273H272.71V95.0593H274.71ZM273.71 86.6273H284.942V84.6273H273.71V86.6273ZM283.942 85.6273V95.0593H285.942V85.6273H283.942ZM284.942 96.0593H294.59V94.0593H284.942V96.0593ZM293.59 95.0593V103.699H295.59V95.0593H293.59ZM294.59 102.699H284.942V104.699H294.59V102.699ZM283.942 103.699V119.467H285.942V103.699H283.942ZM283.942 119.467C283.942 121.262 284.392 122.801 285.42 123.95L286.911 122.617C286.307 121.942 285.942 120.937 285.942 119.467H283.942ZM285.459 123.99C286.555 125.087 288.036 125.579 289.766 125.579V123.579C288.423 123.579 287.504 123.207 286.873 122.576L285.459 123.99ZM289.766 125.579C291.733 125.579 293.466 125.043 294.911 123.932L293.692 122.347C292.641 123.155 291.351 123.579 289.766 123.579V125.579ZM293.367 123.496L296.391 131.416L298.26 130.703L295.236 122.783L293.367 123.496ZM307.231 132.355L306.974 133.322L306.981 133.324L306.988 133.325L307.231 132.355ZM299.887 129.331L298.98 128.91L298.616 129.693L299.337 130.167L299.887 129.331ZM303.631 121.267L304.169 120.425L303.205 119.809L302.724 120.846L303.631 121.267ZM309.895 124.003L309.613 124.963L309.621 124.965L309.63 124.968L309.895 124.003ZM322.279 119.107L321.931 120.045L321.931 120.045L322.279 119.107ZM316.303 117.883L316.153 118.872L316.166 118.874L316.179 118.876L316.303 117.883ZM308.455 116.227L308.744 115.27L308.744 115.27L308.455 116.227ZM303.055 112.915L302.326 113.6L302.331 113.606L302.337 113.611L303.055 112.915ZM302.911 99.6673L302.111 99.0673L302.108 99.0706L302.911 99.6673ZM309.103 95.2033L308.743 94.2704L308.737 94.2726L309.103 95.2033ZM326.887 94.5553L326.661 95.5294L326.671 95.5317L326.681 95.5339L326.887 94.5553ZM333.655 97.0033L334.56 97.4275L334.945 96.6069L334.166 96.1438L333.655 97.0033ZM329.911 104.995L329.42 105.867L330.359 106.396L330.816 105.42L329.911 104.995ZM313.351 103.123L312.862 102.251L312.862 102.251L313.351 103.123ZM313.495 108.235L313.842 107.298L313.842 107.298L313.495 108.235ZM319.687 109.603L319.851 108.617L319.838 108.615L319.687 109.603ZM327.463 111.331L327.167 112.287L327.177 112.29L327.188 112.293L327.463 111.331ZM332.719 114.571L331.99 115.256L331.99 115.256L332.719 114.571ZM332.791 127.603L333.583 128.213L333.583 128.213L332.791 127.603ZM326.455 131.995L326.8 132.934L326.809 132.93L326.455 131.995ZM316.663 132.507C313.527 132.507 310.465 132.133 307.473 131.385L306.988 133.325C310.141 134.114 313.366 134.507 316.663 134.507V132.507ZM307.487 131.389C304.476 130.589 302.14 129.616 300.436 128.496L299.337 130.167C301.282 131.446 303.841 132.49 306.974 133.322L307.487 131.389ZM300.794 129.752L304.538 121.688L302.724 120.846L298.98 128.91L300.794 129.752ZM303.092 122.11C304.916 123.275 307.095 124.222 309.613 124.963L310.177 123.044C307.798 122.344 305.801 121.467 304.169 120.425L303.092 122.11ZM309.63 124.968C312.157 125.661 314.646 126.011 317.095 126.011V124.011C314.839 124.011 312.528 123.689 310.159 123.039L309.63 124.968ZM317.095 126.011C319.521 126.011 321.489 125.716 322.884 125.026C323.596 124.673 324.191 124.202 324.607 123.585C325.026 122.962 325.223 122.248 325.223 121.483H323.223C323.223 121.894 323.122 122.21 322.948 122.468C322.769 122.734 322.473 122.997 321.997 123.233C321.017 123.718 319.42 124.011 317.095 124.011V126.011ZM325.223 121.483C325.223 120.72 324.993 120.017 324.511 119.428C324.041 118.854 323.384 118.45 322.626 118.17L321.931 120.045C322.469 120.244 322.784 120.476 322.963 120.695C323.129 120.897 323.223 121.143 323.223 121.483H325.223ZM322.626 118.17C321.218 117.648 319.133 117.229 316.427 116.891L316.179 118.876C318.848 119.209 320.747 119.606 321.931 120.045L322.626 118.17ZM316.453 116.895C313.311 116.419 310.746 115.875 308.744 115.27L308.165 117.185C310.291 117.827 312.958 118.388 316.153 118.872L316.453 116.895ZM308.744 115.27C306.847 114.696 305.193 113.684 303.773 112.219L302.337 113.611C303.988 115.315 305.935 116.51 308.165 117.185L308.744 115.27ZM303.784 112.231C302.523 110.889 301.823 108.911 301.823 106.147H299.823C299.823 109.24 300.61 111.774 302.326 113.6L303.784 112.231ZM301.823 106.147C301.823 103.903 302.456 101.955 303.713 100.264L302.108 99.0706C300.581 101.124 299.823 103.496 299.823 106.147H301.823ZM303.711 100.267C305.019 98.5234 306.918 97.1361 309.468 96.1341L308.737 94.2726C305.912 95.3825 303.683 96.9712 302.111 99.0673L303.711 100.267ZM309.463 96.1362C312.058 95.1344 315.147 94.6193 318.751 94.6193V92.6193C314.962 92.6193 311.619 93.1602 308.743 94.2704L309.463 96.1362ZM318.751 94.6193C321.41 94.6193 324.046 94.9225 326.661 95.5294L327.113 93.5812C324.351 92.9401 321.563 92.6193 318.751 92.6193V94.6193ZM326.681 95.5339C329.345 96.0947 331.489 96.8789 333.144 97.8628L334.166 96.1438C332.269 95.0157 329.901 94.1679 327.093 93.5768L326.681 95.5339ZM332.749 96.5791L329.005 104.571L330.816 105.42L334.56 97.4275L332.749 96.5791ZM330.402 104.124C326.839 102.117 322.949 101.115 318.751 101.115V103.115C322.616 103.115 326.166 104.034 329.42 105.867L330.402 104.124ZM318.751 101.115C316.29 101.115 314.285 101.454 312.862 102.251L313.839 103.996C314.817 103.449 316.411 103.115 318.751 103.115V101.115ZM312.862 102.251C311.457 103.038 310.551 104.187 310.551 105.715H312.551C312.551 105.132 312.845 104.553 313.839 103.996L312.862 102.251ZM310.551 105.715C310.551 106.506 310.768 107.238 311.245 107.856C311.713 108.463 312.376 108.887 313.147 109.173L313.842 107.298C313.318 107.103 313.008 106.867 312.828 106.635C312.657 106.412 312.551 106.125 312.551 105.715H310.551ZM313.147 109.173C314.544 109.69 316.692 110.158 319.536 110.592L319.838 108.615C317.017 108.185 315.037 107.74 313.842 107.298L313.147 109.173ZM319.522 110.59C322.666 111.114 325.21 111.681 327.167 112.287L327.758 110.376C325.683 109.734 323.043 109.149 319.851 108.617L319.522 110.59ZM327.188 112.293C329.024 112.817 330.621 113.799 331.99 115.256L333.448 113.887C331.841 112.176 329.934 110.997 327.737 110.37L327.188 112.293ZM331.99 115.256C333.256 116.604 333.951 118.538 333.951 121.195H335.951C335.951 118.188 335.157 115.707 333.448 113.887L331.99 115.256ZM333.951 121.195C333.951 123.379 333.301 125.299 331.998 126.994L333.583 128.213C335.16 126.163 335.951 123.812 335.951 121.195H333.951ZM331.998 126.994C330.697 128.685 328.756 130.053 326.1 131.06L326.809 132.93C329.722 131.826 332.004 130.266 333.583 128.213L331.998 126.994ZM326.109 131.057C323.511 132.014 320.37 132.507 316.663 132.507V134.507C320.539 134.507 323.926 133.993 326.8 132.934L326.109 131.057Z" fill="#F0F0F0"/>
<defs>
<linearGradient id="paint0_linear" x1="94.6469" y1="93.0941" x2="334.14" y2="93.2417" gradientUnits="userSpaceOnUse">
<stop offset="0.00730526"/>
<stop offset="0.9999" stop-color="white"/>
<stop offset="1" stop-color="#E5E5E5"/>
</linearGradient>
</defs>
</svg>
